<?xml version="1.0" encoding="utf-8"?>
<!-- Generator: Adobe Illustrator 28.0.0, SVG Export Plug-In . SVG Version: 6.00 Build 0)  -->
<svg version="1.1" id="Capa_2_00000096738617449994806080000002865062990167858608_"
	 xmlns="http://www.w3.org/2000/svg" xmlns:xlink="http://www.w3.org/1999/xlink" x="0px" y="0px" viewBox="0 0 66.4 66.6"
	 style="enable-background:new 0 0 66.4 66.6;" xml:space="preserve">
<style type="text/css">
	.st0{fill:#FFFFFF;}
</style>
<g id="Capa_2-2">
	<g>
		<path class="st0" d="M19.3,44c1.1,0,2.1,0,3.2,0c0.5,0,0.7-0.2,0.8-0.6c0.4-1.4,0.9-2.7,1.3-4.1c0.1-0.3,0.3-0.5,0.6-0.5
			c1.1,0,2.2,0,3.3,0s2.2,0,3.3,0c0.4,0,0.5,0.1,0.7,0.5c0.5,1.4,1,2.8,1.4,4.1c0.1,0.4,0.3,0.5,0.8,0.5c1.2,0,2.4,0,3.6,0
			c0.6,0,0.7,0,0.4-0.6c-0.9-2.4-1.7-4.9-2.6-7.3c-1.5-4.4-3.1-8.8-4.6-13.1c-0.1-0.3-0.2-0.6-0.6-0.6c-1.6,0-3.2,0-4.8,0
			c-0.3,0-0.5,0.1-0.5,0.5c0,0.7-0.1,1.3-0.4,1.9c-0.5,1.5-1,3-1.5,4.5c-1.6,4.7-3.3,9.4-4.9,14.1C18.6,44,18.6,44.1,19.3,44
			L19.3,44L19.3,44z M26.1,34.4c0.5-1.7,1.1-3.4,1.6-5.2c0.3-0.9,0.5-1.9,0.8-2.9c0.8,2.9,1.7,5.7,2.6,8.5h-4.9
			C25.8,34.8,26,34.5,26.1,34.4L26.1,34.4L26.1,34.4z"/>
		<path class="st0" d="M45.6,28.3c0-0.5-0.1-0.6-0.6-0.6c-1.1,0-2.3,0-3.4,0c-0.4,0-0.6,0.1-0.6,0.6c0,5.1,0,10.2,0,15.2
			c0,0.5,0.2,0.6,0.6,0.6c1.1,0,2.2,0,3.3,0c0.5,0,0.7-0.2,0.7-0.7c0-2.5,0-5,0-7.5L45.6,28.3L45.6,28.3L45.6,28.3z"/>
		<path class="st0" d="M43.4,20.8c-1.5,0-2.6,1.1-2.6,2.5c0,1.6,1,2.6,2.5,2.6s2.6-1.1,2.6-2.6C45.9,21.8,44.9,20.8,43.4,20.8z"/>
		<path class="st0" d="M33.2,0v6.8c14.6,0,26.5,11.9,26.5,26.5S47.8,59.8,33.2,59.8c-13.8,0-25.1-10.5-26.4-23.9H0
			C1.3,53,15.7,66.6,33.2,66.6c18.4,0,33.3-14.9,33.3-33.3S51.5,0,33.2,0z"/>
	</g>
</g>
</svg>
