<?xml version="1.0" encoding="UTF-8"?>
<svg id="Capa_2" data-name="Capa 2" xmlns="http://www.w3.org/2000/svg" xmlns:xlink="http://www.w3.org/1999/xlink" viewBox="0 0 66.45 66.56">
  <defs>
    <style>
      .cls-1 {
        fill: url(#Degradado_sin_nombre_4-4);
      }

      .cls-1, .cls-2, .cls-3, .cls-4 {
        stroke-width: 0px;
      }

      .cls-2 {
        fill: url(#Degradado_sin_nombre_4-2);
      }

      .cls-3 {
        fill: url(#Degradado_sin_nombre_4);
      }

      .cls-4 {
        fill: url(#Degradado_sin_nombre_4-3);
      }
    </style>
    <linearGradient id="Degradado_sin_nombre_4" data-name="Degradado sin nombre 4" x1="55.24" y1="53.78" x2="8.61" y2="10.83" gradientTransform="translate(0 65.89) scale(1 -1)" gradientUnits="userSpaceOnUse">
      <stop offset="0" stop-color="#f3981b"/>
      <stop offset=".15" stop-color="#da8619"/>
      <stop offset=".48" stop-color="#9a5a15"/>
      <stop offset=".96" stop-color="#35130e"/>
      <stop offset="1" stop-color="#2c0d0e"/>
    </linearGradient>
    <linearGradient id="Degradado_sin_nombre_4-2" data-name="Degradado sin nombre 4" x1="61.61" y1="46.86" x2="14.98" y2="3.91" xlink:href="#Degradado_sin_nombre_4"/>
    <linearGradient id="Degradado_sin_nombre_4-3" data-name="Degradado sin nombre 4" x1="55.41" y1="53.6" x2="8.78" y2="10.65" xlink:href="#Degradado_sin_nombre_4"/>
    <linearGradient id="Degradado_sin_nombre_4-4" data-name="Degradado sin nombre 4" x1="58.64" y1="50.09" x2="12.01" y2="7.14" xlink:href="#Degradado_sin_nombre_4"/>
  </defs>
  <g id="Capa_2-2" data-name="Capa 2">
    <g>
      <path class="cls-3" d="m19.29,44.04c1.07,0,2.14-.02,3.21,0,.45,0,.67-.16.79-.58.42-1.37.88-2.74,1.3-4.11.1-.33.26-.46.61-.45,1.11.02,2.22,0,3.33,0s2.22.02,3.33,0c.37,0,.55.11.67.47.45,1.38.95,2.75,1.4,4.14.13.41.34.54.76.53,1.21-.03,2.41,0,3.62,0,.63,0,.65-.02.44-.62-.86-2.44-1.72-4.87-2.59-7.3-1.55-4.37-3.11-8.75-4.65-13.12-.11-.3-.18-.57-.61-.56-1.6.02-3.19.01-4.79,0-.34,0-.49.11-.49.47,0,.67-.15,1.31-.37,1.94-.52,1.48-1.04,2.97-1.55,4.46-1.63,4.7-3.26,9.39-4.89,14.09-.22.62-.19.66.47.66v-.02Zm6.79-9.68c.54-1.72,1.1-3.43,1.63-5.16.29-.94.54-1.89.83-2.94.79,2.91,1.73,5.67,2.61,8.52h-4.9c-.41,0-.24-.24-.18-.43h.01Z"/>
      <path class="cls-2" d="m45.64,28.27c0-.45-.12-.62-.59-.61-1.13.03-2.26.03-3.39,0-.44,0-.62.1-.61.58.02,5.08.02,10.16,0,15.23,0,.49.18.59.62.58,1.11-.02,2.22-.03,3.33,0,.53.02.65-.18.65-.67-.02-2.51,0-5.02,0-7.53v-7.59h-.01Z"/>
      <path class="cls-4" d="m43.42,20.8c-1.5,0-2.59,1.07-2.59,2.55,0,1.56,1,2.59,2.51,2.59s2.6-1.06,2.59-2.6c0-1.52-1.01-2.53-2.51-2.54Z"/>
      <path class="cls-1" d="m33.17,0v6.79c14.63,0,26.49,11.86,26.49,26.49s-11.86,26.49-26.49,26.49c-13.76,0-25.06-10.49-26.36-23.91H0c1.32,17.17,15.66,30.7,33.17,30.7,18.38,0,33.28-14.9,33.28-33.28S51.54,0,33.17,0Z"/>
    </g>
  </g>
</svg>