<?xml version="1.0" encoding="UTF-8"?>
<svg id="Capa_2" data-name="Capa 2" xmlns="http://www.w3.org/2000/svg" viewBox="0 0 300 226.2">
  <defs>
    <style>
      .cls-1 {
        fill: #fff;
        stroke-width: 0px;
      }
    </style>
  </defs>
  <g id="Capa_1-2" data-name="Capa 1">
    <g>
      <path class="cls-1" d="m220.54,146.68c2.24-1.12,5.05-.14,6.17,2.1s.14,5.05-2.1,6.17l-17.38,8.41c-1.12.56-2.38.56-3.5.14s-2.1-1.26-2.66-2.38c-1.12-2.24-.14-5.05,2.1-6.17l17.38-8.27h0Z"/>
      <path class="cls-1" d="m220.82,122.43c2.24-1.12,5.05-.14,6.17,2.1s.14,5.05-2.1,6.17l-36.86,17.94c-1.12.56-2.38.56-3.5.14s-2.1-1.26-2.66-2.38c-1.12-2.24-.14-5.05,2.1-6.17l36.86-17.8h0Z"/>
      <path class="cls-1" d="m3.16,74.92c-10.37,29.99,5.6,62.65,35.6,72.88,29.57,10.23,61.8-5.19,72.46-34.48.14-.28.28-.56.28-.84.28-.98,1.4-3.92,7.15-5.05,4.77-.84,10.93-.14,16.96,1.96,10.23,3.5,19.34,10.93,17.1,17.38-.14.42-.28.7-.28,1.12-9.39,29.57,6.59,61.38,36.02,71.48,29.99,10.37,62.65-5.6,72.88-35.6,10.23-29.99-5.6-62.65-35.6-72.88-22.98-7.85-47.37-.42-62.23,16.96-5.05-6.03-12.61-11.21-22.43-14.57-9.81-3.36-18.92-4.06-26.63-2.38-.98-22.84-15.7-43.73-38.68-51.72C46.04,29.09,13.39,45.06,3.16,74.92h0Zm166.07,57.18c7.29-21.02,30.13-32.23,51.29-24.94,21.02,7.29,32.23,30.13,24.94,51.29-7.29,21.16-30.13,32.23-51.29,24.94-21.16-7.29-32.23-30.13-24.94-51.29h0ZM19.28,80.53c7.29-21.02,30.13-32.23,51.29-24.94,21.16,7.29,32.23,30.13,24.94,51.29-7.29,21.02-30.13,32.23-51.29,24.94-21.16-7.29-32.23-30.27-24.94-51.29h0Z"/>
      <path class="cls-1" d="m70.58,95.11c2.24-1.12,5.05-.14,6.17,2.1s.14,5.05-2.1,6.17l-17.38,8.41c-1.12.56-2.38.56-3.5.14s-2.1-1.26-2.66-2.38c-1.12-2.24-.14-5.05,2.1-6.17l17.38-8.27h0Z"/>
      <path class="cls-1" d="m70.86,70.86c2.24-1.12,5.05-.14,6.17,2.1s.14,5.05-2.1,6.17l-36.86,17.94c-1.12.56-2.38.56-3.5.14s-2.1-1.26-2.66-2.38c-1.12-2.24-.14-5.05,2.1-6.17l36.86-17.8h0Z"/>
      <path class="cls-1" d="m81.51,18.17c-11.21-3.5-23.4-4.77-35.04-2.24-12.05,2.52-23.69,8.69-32.37,17.94C22.5,19.29,37.08,8.5,53.2,3.59,63.29.37,74.08-.47,84.73.23c5.88.14,10.23,6.31,8.41,12.05-1.68,4.77-6.87,7.43-11.64,5.88h0Z"/>
      <path class="cls-1" d="m254.03,96.51c-7.85-7.15-14.01-15.98-18.78-25.51-2.81-5.19.28-12.05,6.17-13.32,4.91-1.12,9.95,1.96,11.07,7.01,2.66,11.49,7.71,22.56,15.7,31.39,8.27,9.11,19.48,16.11,31.81,18.92-16.82.14-33.49-7.15-45.97-18.5h0Z"/>
      <path class="cls-1" d="m76.18,183.53c-5.74,16.82,3.22,35.18,19.9,40.92,16.82,5.74,35.18-3.22,40.92-19.9,5.74-16.82-3.22-35.18-19.9-40.92-16.82-5.88-35.18,3.09-40.92,19.9Zm9.95,3.36c3.92-11.35,16.25-17.38,27.61-13.46,11.35,3.92,17.38,16.25,13.46,27.61-3.92,11.35-16.25,17.38-27.61,13.46-11.35-3.78-17.38-16.25-13.46-27.61Z"/>
    </g>
  </g>
</svg>