<?xml version="1.0" encoding="UTF-8"?>
<svg id="Capa_2" data-name="Capa 2" xmlns="http://www.w3.org/2000/svg" viewBox="0 0 245.89 190">
  <defs>
    <style>
      .cls-1 {
        fill: #fff;
        stroke-width: 0px;
      }
    </style>
  </defs>
  <g id="Capa_1-2" data-name="Capa 1">
    <g>
      <path class="cls-1" d="m91.57,113.32c.87-1.84,3.09-2.61,4.92-1.74,1.84.87,2.61,3.09,1.74,4.92l-6.85,13.99c-.48.96-1.25,1.54-2.13,1.93s-1.93.29-2.8-.19c-1.84-.87-2.61-3.09-1.74-4.92l6.85-13.99h0Z"/>
      <path class="cls-1" d="m79.69,97.68c.87-1.84,3.09-2.61,4.92-1.74,1.84.87,2.61,3.09,1.74,4.92l-14.48,29.73c-.48.96-1.25,1.54-2.13,1.93s-1.93.29-2.8-.19c-1.84-.87-2.61-3.09-1.74-4.92l14.48-29.73h0Z"/>
      <path class="cls-1" d="m201.42,75.48c.87-1.84,3.09-2.61,4.92-1.74,1.84.87,2.61,3.09,1.74,4.92l-6.85,13.99c-.48.96-1.25,1.54-2.13,1.93s-1.93.29-2.8-.19c-1.84-.87-2.61-3.09-1.74-4.92l6.85-13.99h0Z"/>
      <path class="cls-1" d="m189.45,59.93c.87-1.84,3.09-2.61,4.92-1.74,1.84.87,2.61,3.09,1.74,4.92l-14.48,29.73c-.48.96-1.25,1.54-2.13,1.93s-1.93.29-2.8-.19c-1.84-.87-2.61-3.09-1.74-4.92l14.48-29.73h0Z"/>
      <path class="cls-1" d="m10.29,72.1c4.92-7.05,11.29-13.03,18.34-17.86,3.86-2.8,9.65-1.06,11.29,3.48,1.45,3.86-.48,8.2-4.34,9.65-8.88,3.38-17.28,8.69-23.36,16.02-6.47,7.63-10.81,17.37-11.78,27.51-1.84-13.42,2.13-27.61,9.84-38.81h0Z"/>
      <path class="cls-1" d="m178.93,9.93c-1.54-4.63,1.93-9.56,6.76-9.75,8.59-.58,17.28.19,25.49,2.7,13.03,3.96,24.81,12.74,31.66,24.52-6.95-7.43-16.41-12.36-26.16-14.48-9.37-2.03-19.21-1.06-28.28,1.84-3.96,1.25-8.2-.87-9.46-4.83h0Z"/>
      <path class="cls-1" d="m26.22,102.99l21.72,62.94c2.31,6.76,9.75,10.43,16.51,8.01l62.94-21.72c6.76-2.31,10.43-9.75,8.01-16.51l-7.92-23.17,22.3-7.72,7.92,23.17c2.31,6.76,9.75,10.43,16.51,8.01l62.94-21.72c6.76-2.31,10.43-9.75,8.01-16.51l-21.72-62.94c-2.31-6.76-9.75-10.43-16.51-8.01l-62.84,21.91c-6.76,2.31-10.43,9.75-8.01,16.51l8.49,24.81-22.3,7.72-8.49-24.81c-2.31-6.76-9.75-10.43-16.51-8.01l-62.94,21.72c-6.85,2.13-10.43,9.56-8.11,16.31h0Zm127.33-29.25c-2.31-6.76,1.25-14.19,8.01-16.51l36.97-12.74c6.76-2.31,14.19,1.25,16.51,8.01l12.74,36.97c2.31,6.76-1.25,14.19-8.01,16.51l-36.97,12.74c-6.76,2.31-14.19-1.25-16.51-8.01l-12.74-36.97Zm-109.85,37.74c-2.31-6.76,1.25-14.19,8.01-16.51l36.97-12.74c6.76-2.31,14.19,1.25,16.51,8.01l12.74,36.97c2.31,6.76-1.25,14.19-8.01,16.51l-36.97,12.74c-6.76,2.31-14.19-1.25-16.51-8.01l-12.74-36.97Z"/>
      <path class="cls-1" d="m142.63,165.64c2.61,7.53,10.91,11.58,18.44,8.98,7.53-2.61,11.58-10.91,8.98-18.44l-.96-2.9,13.81-4.73.96,2.9c5.21,15.16-2.9,31.76-18.05,36.97-15.16,5.21-31.76-2.9-36.97-18.05l-.96-2.9,13.81-4.73.96,2.9h0Z"/>
    </g>
  </g>
</svg>