<?xml version="1.0" encoding="utf-8"?>
<!-- Generator: Adobe Illustrator 28.0.0, SVG Export Plug-In . SVG Version: 6.00 Build 0)  -->
<svg version="1.1" id="Capa_2_00000101072448556611918450000007907621490241430200_"
	 xmlns="http://www.w3.org/2000/svg" xmlns:xlink="http://www.w3.org/1999/xlink" x="0px" y="0px" viewBox="0 0 52.3 66.6"
	 style="enable-background:new 0 0 52.3 66.6;" xml:space="preserve">
<style type="text/css">
	.st0{fill:#FFFFFF;}
</style>
<g id="Capa_2-2">
	<g>
		<path class="st0" d="M17.9,36.5c1.2-1.1,2-2.6,2-4.5c0-2.9-1.9-4.9-4.3-5.5v-0.1c2.3-0.9,3.6-2.8,3.6-4.8c0-1.8-0.8-3.2-2.1-4.1
			c-1.5-1.1-3.3-1.5-6-1.5c-2.1,0-4.2,0.2-5.4,0.5v21.8c1,0.1,2.5,0.3,4.6,0.3C13.9,38.6,16.4,37.9,17.9,36.5
			C17.9,36.5,17.9,36.5,17.9,36.5z M9.4,19.2c0.4-0.1,1-0.2,2-0.2c2.4,0,3.8,1.1,3.8,3.1s-1.5,3.3-4,3.3H9.4V19.2
			C9.4,19.2,9.4,19.2,9.4,19.2z M9.4,28.2h1.7c2.6,0,4.7,1.1,4.7,3.7s-2.1,3.7-4.6,3.7c-0.8,0-1.4,0-1.8-0.1V28.2L9.4,28.2z"/>
		<path class="st0" d="M21.5,35.8v2h11.1v-2.7h-6.7v0l1.4-1.4c2.8-2.8,5-5.4,5-8.5c0-2.8-1.7-5.2-5.5-5.2c-2,0-3.8,0.7-4.9,1.6
			l0.9,2.3c0.8-0.6,2-1.3,3.4-1.3c2.1,0,2.9,1.3,2.9,2.9c0,2.5-2,4.8-5.6,8.4L21.5,35.8L21.5,35.8L21.5,35.8z"/>
		<path class="st0" d="M19,0v6.8c14.6,0,26.4,11.8,26.4,26.4S33.6,59.7,19,59.7c-5.6,0-10.7-1.7-15-4.7L0,60.6c5.4,3.8,12,6,19,6
			c18.4,0,33.3-14.9,33.3-33.3S37.4,0,19,0z"/>
		<rect x="4" y="40.3" class="st0" width="1.5" height="7.8"/>
		<path class="st0" d="M12.2,48.2v-3.8c0-0.7-0.2-1.2-0.5-1.5c-0.4-0.4-0.9-0.6-1.5-0.6c-0.3,0-0.6,0-0.8,0.2
			c-0.3,0.1-0.6,0.3-0.9,0.6v-0.6H7v5.8h1.5v-2.3c0-0.6,0-1,0.1-1.2C8.6,44.3,8.8,44,9,43.8s0.5-0.3,0.8-0.3c0.2,0,0.4,0.1,0.6,0.2
			s0.3,0.3,0.3,0.5s0.1,0.7,0.1,1.4v2.5C10.7,48.2,12.2,48.2,12.2,48.2z"/>
		<path class="st0" d="M17.2,48.9c-0.2,0.1-0.5,0.2-0.9,0.2c-0.3,0-0.6,0-0.8-0.1c-0.2-0.1-0.4-0.2-0.6-0.4h-1.6
			c0.1,0.4,0.3,0.7,0.6,1c0.3,0.3,0.6,0.5,1,0.6c0.4,0.1,0.9,0.2,1.4,0.2c1.1,0,1.9-0.3,2.4-0.9c0.4-0.5,0.6-1.2,0.6-2.2v-5h-1.5V43
			c-0.3-0.3-0.6-0.5-0.9-0.6c-0.3-0.1-0.6-0.2-1-0.2c-0.7,0-1.3,0.2-1.8,0.8c-0.6,0.6-0.9,1.3-0.9,2.2c0,0.9,0.3,1.6,0.8,2.1
			s1.2,0.8,2,0.8c0.4,0,0.7-0.1,1-0.2c0.3-0.1,0.5-0.3,0.8-0.5c0,0.5,0,0.8-0.1,1C17.6,48.7,17.4,48.8,17.2,48.9L17.2,48.9
			L17.2,48.9z M17.5,46.4c-0.3,0.3-0.7,0.5-1.1,0.5s-0.9-0.2-1.1-0.5c-0.3-0.3-0.5-0.7-0.5-1.2s0.1-0.8,0.4-1.2s0.7-0.5,1.1-0.5
			s0.9,0.2,1.1,0.5s0.4,0.7,0.4,1.2S17.8,46.1,17.5,46.4C17.5,46.4,17.5,46.4,17.5,46.4z"/>
		<rect x="20.6" y="40.1" class="st0" width="1.5" height="8"/>
		<polygon class="st0" points="28.1,39.2 26.4,39.2 25.1,41.3 26.2,41.3 		"/>
		<path class="st0" d="M29.2,45.4c0-1-0.3-1.7-0.9-2.3c-0.6-0.6-1.3-0.9-2.2-0.9c-0.9,0-1.6,0.3-2.1,0.9c-0.6,0.6-0.9,1.3-0.9,2.2
			s0.3,1.6,0.9,2.2c0.6,0.6,1.3,0.9,2.2,0.9c0.6,0,1.1-0.1,1.5-0.3c0.4-0.2,0.8-0.5,1.1-1l-1.2-0.6c-0.4,0.4-0.9,0.6-1.4,0.6
			c-0.5,0-0.8-0.1-1.1-0.4c-0.3-0.2-0.5-0.6-0.5-1h4.7L29.2,45.4L29.2,45.4L29.2,45.4z M24.6,44.5c0.2-0.4,0.3-0.6,0.5-0.8
			c0.3-0.2,0.7-0.3,1.1-0.3c0.4,0,0.7,0.1,1,0.3c0.3,0.2,0.5,0.5,0.6,0.8H24.6z"/>
		<path class="st0" d="M32,43.5c0.3,0,0.6,0.2,1,0.5l0.9-0.9c-0.2-0.3-0.5-0.5-0.8-0.7c-0.3-0.2-0.7-0.2-1.1-0.2
			c-0.5,0-1,0.2-1.4,0.5c-0.4,0.3-0.5,0.7-0.5,1.2c0,0.7,0.5,1.3,1.4,1.8l0.5,0.2c0.4,0.2,0.6,0.4,0.6,0.7c0,0.1-0.1,0.2-0.2,0.3
			S32.2,47,32,47c-0.2,0-0.4-0.1-0.6-0.2c-0.2-0.1-0.4-0.3-0.6-0.5l-0.9,1c0.5,0.7,1.2,1,2,1c0.6,0,1.1-0.2,1.5-0.5
			c0.4-0.3,0.6-0.8,0.6-1.3c0-0.4-0.1-0.7-0.3-1c-0.2-0.3-0.6-0.6-1.2-0.8l-0.5-0.3c-0.2-0.1-0.4-0.2-0.4-0.3
			c-0.1-0.1-0.1-0.1-0.1-0.2c0-0.1,0-0.2,0.1-0.3S31.9,43.6,32,43.5L32,43.5L32,43.5z"/>
	</g>
</g>
</svg>
