<?xml version="1.0" encoding="UTF-8"?>
<svg id="Capa_2" data-name="Capa 2" xmlns="http://www.w3.org/2000/svg" viewBox="0 0 1920 1361.14">
  <defs>
    <style>
      .cls-1, .cls-2 {
        opacity: .5;
      }

      .cls-3 {
        opacity: .36;
      }

      .cls-2 {
        isolation: isolate;
      }

      .cls-2, .cls-4 {
        fill: #e73e26;
      }

      .cls-2, .cls-4, .cls-5 {
        stroke-width: 0px;
      }

      .cls-5 {
        fill: #ffd741;
        opacity: .75;
      }
    </style>
  </defs>
  <rect class="cls-5" x="-7.53" y="-3.61" width="1935.07" height="1368.37"/>
  <g class="cls-3">
    <path class="cls-2" d="m905.75,249c-23.63-32.86-69.47-39.87-109.92-38.47-40.46,1.41-82.75,8.09-120.1-7.53-60.77-25.44-83.77-97.2-110.38-157.46-22.15-50.16-52-98.03-94.08-133.2-42.1-35.17-97.6-56.55-152.02-49.7-19.15,2.42-38.55,8.65-52.45,22.02-13.62,13.13-20.5,31.58-27.03,49.33C212.13,9.13,154.01,66.08,80.51,97.84c-76.03,32.85-142.15,24.59-223.89,38.03-94.74,15.57-173.26,101.24-180.54,196.98-7.28,95.73,77.55,259.24,161.41,305.97,164.63,91.7,200.2-116.93,290.35-38.93,31.73,27.44-74.99,38.07-44.76,143.96,11.52,40.33,120.1,208.24,249.13,164.66,46.32-15.64,258.85-261.31,307.05-269.57,43.9-7.53,20.45,142.38,139.68,135.28,44.47-2.63,132.42-85.22,153.52-124.45,14.66-27.26,8.78-62.09-7.88-88.18-16.68-26.09-42.54-44.84-68.98-60.93-34.41-20.93-74.83-43.56-82.31-83.14-1.93-10.32-.5-22.66,8.16-28.57,7.15-4.89,16.63-3.74,25.27-3.23,35.08,2.06,71.89-11.18,93.78-38.67,21.89-27.48,25.79-69.53,5.27-98.06h-.02Z"/>
    <g class="cls-1">
      <path class="cls-4" d="m903.69,1200.27c-58.61,21.03-117.89,40.11-177.29,58.79-6.4,2.02-13.26-1.11-16.09-7.18-10.99-23.7-19.21-48.27-26.14-73.27-1.64-8.7,2.03-9.85,9.15.03,32.17,44.62,136.84,12.21,174.4-.11,9.28-3.06,13.88-11.13,12.16-20.69-6.1-33.86-10.76-67.14-22.89-99.5-3.19-8.5-11.38-15.34-21.06-12.39-26.66,8.14-52.61,15.93-80.59,17.86-8.91.62-18.4,7.38-17.64,17.42,1.54,20.24,4.68,38.1,13.25,56.58,4.11,8.87,14.89,6.36,23.86,6.73,12.89.54,22.17-2.21,34.31-1.84,17.47.54,19.94-24.35,4.18-29.5-12.82-4.19-22.28-6.89-32.15-6.31-2.7.16-5.12-1.69-5.74-4.32-.02-.05-.03-.08-.03-.11-.73-3.17,1.4-6.24,4.6-6.78,14.81-2.49,29.32-6,43.8-10.13,2.97-.85,6.11.83,6.97,3.8,5.48,18.84,9.28,37.97,12.76,57.34.47,2.63-.98,5.25-3.46,6.23-38.07,15.03-109.03,42.89-121.89,16.89-17.36-35.14-29.47-79.35-33.99-119.76-.29-2.6,1.27-5.07,3.74-5.93,25.63-9.02,51.98-16.5,78.52-21.88,20.71-4.19,75.97-20.46,92.01.89,33.03,43.95,41.82,114.28,48.89,171.12.32,2.62-1.2,5.09-3.69,5.98l.03.03h.02Z"/>
      <path class="cls-4" d="m1032.82,1126.66c9.3,28.8,17.64,57.9,25.78,87.05.88,3.14-.73,6.44-3.74,7.7-11.69,4.96-23.75,8.57-36,11.54-4.24.65-4.75-1.15.16-4.45,22.19-14.92,8.09-66.28,2.7-84.73-1.33-4.57-5.2-6.92-9.87-6.24-16.55,2.44-32.78,4.18-48.7,9.56-4.18,1.41-7.62,5.27-6.34,10.03,3.54,13.07,6.91,25.81,7.41,39.43.16,4.34,3.3,9.05,8.19,8.84,9.85-.42,18.58-1.67,27.7-5.54,4.37-1.87,3.32-7.14,3.64-11.49.46-6.26-.73-10.81-.36-16.69.54-8.47-11.52-10.06-14.27-2.49-2.24,6.16-3.71,10.71-3.58,15.52.03,1.32-.91,2.45-2.19,2.71h-.05c-1.54.31-3.01-.78-3.22-2.34-.98-7.23-2.45-14.34-4.23-21.44-.37-1.46.49-2.96,1.95-3.33,9.23-2.37,18.59-3.92,28.05-5.3,1.3-.2,2.54.55,2.97,1.77,6.71,18.74,19.13,53.65,6.29,59.49-17.34,7.88-39.02,13.07-58.72,14.63-1.27.1-2.44-.7-2.83-1.92-3.98-12.6-7.2-25.5-9.39-38.49-1.71-10.11-8.74-37.22,1.89-44.68,21.86-15.34,56.17-18.51,83.9-21.05,1.27-.11,2.45.67,2.84,1.89v.02h.02Z"/>
      <path class="cls-4" d="m923.26,1235.85c21.71,47.59,41.85,95.85,61.67,144.27,2.15,5.2.02,11.17-4.88,13.96-19.07,10.86-39.04,19.47-59.49,27.03-7.17,1.98-8.39-1.01-.62-7.67,35.08-30.05.6-115.4-12.35-145.97-3.2-7.56-10.29-10.84-18.17-8.73-27.91,7.49-55.44,13.73-81.67,26.15-6.89,3.27-12.04,10.6-8.87,18.5,8.7,21.71,17.03,42.91,20.61,66.18,1.14,7.41,7.46,14.89,15.81,13.54,16.82-2.71,31.55-6.6,46.42-15.07,7.14-4.06,4.27-12.91,3.95-20.45-.46-10.82-3.41-18.4-3.95-28.59-.76-14.64-21.78-14.97-24.98-1.41-2.62,11.02-4.21,19.13-3.02,27.35.33,2.24-1.06,4.4-3.22,5.1-.02.02-.05.03-.08.03-2.6.83-5.33-.75-6-3.38-3.1-12.22-7.07-24.12-11.54-35.95-.93-2.42.26-5.17,2.68-6.1,15.39-5.92,31.14-10.43,47.1-14.71,2.16-.59,4.45.44,5.44,2.45,15.26,30.82,43.58,88.26,22.71,100.84-28.2,17-64.36,30.25-97.86,36.86-2.16.42-4.34-.72-5.23-2.71-9.35-20.82-17.46-42.34-23.83-64.19-4.97-17.03-22.48-62.14-5.72-77.07,34.47-30.72,92.73-43.02,139.8-52.94,2.16-.46,4.34.65,5.27,2.67h.03-.01Z"/>
    </g>
    <path class="cls-2" d="m2208.38,600.45c35.87,45.82-43.27,120.76-43.27,120.76l-220.93,212.69c-78.91,84.79-199.46-4.31-199.46-4.31,0,0-296.42-228.75-300.51-342.76-5.31-148.44,333.9-452.5,333.9-452.5,128.06-124.88,365.93-91.35,365.93-91.35,0,0,45.85,16.06,56.17,4.96,16.97-18.22-4.6-42.73-4.6-42.73,0,0-139.96-121.38-194.65-172.29-66.57-61.96-125.87-6.21-125.87-6.21,0,0-458.22,446.23-564.45,560.36-106.23,114.13-88.96,125.77-88.96,125.77,116.64,240.21,495.13,561.43,495.13,561.43,129.2,120.24,256.04,68.2,256.04,68.2,225.97-107.7,506.8-395.11,562.86-455.34,78.76-84.62-170.97-329.26-213.96-369.26-40.78-42.41-65.34-54.16-87.59-33.82-17.86,14.43-35.12,24.62-102.25,96.76-33.76,36.26-.65,94.06-.65,94.06l77.16,125.58h-.04Z"/>
  </g>
</svg>