<?xml version="1.0" encoding="UTF-8"?>
<svg id="Capa_2" data-name="Capa 2" xmlns="http://www.w3.org/2000/svg" xmlns:xlink="http://www.w3.org/1999/xlink" viewBox="0 0 1920 1080">
  <defs>
    <style>
      .cls-1 {
        fill: #ffd740;
      }

      .cls-1, .cls-2, .cls-3, .cls-4 {
        stroke-width: 0px;
      }

      .cls-2 {
        fill: none;
      }

      .cls-5 {
        opacity: .4;
      }

      .cls-6 {
        clip-path: url(#clippath);
      }

      .cls-3 {
        fill: #e73e26;
      }

      .cls-4 {
        fill: url(#Degradado_sin_nombre);
      }

      .cls-7 {
        opacity: .45;
      }
    </style>
    <clipPath id="clippath">
      <rect class="cls-2" x=".89" y="-281.79" width="1918.22" height="1361.79"/>
    </clipPath>
    <linearGradient id="Degradado_sin_nombre" data-name="Degradado sin nombre" x1="960" y1="1361.29" x2="960" y2="-165.54" gradientTransform="translate(0 1079.5) scale(1 -1)" gradientUnits="userSpaceOnUse">
      <stop offset="0" stop-color="#ffd740" stop-opacity="0"/>
      <stop offset=".01" stop-color="#fdd33f" stop-opacity=".01"/>
      <stop offset=".2" stop-color="#df9f37" stop-opacity=".2"/>
      <stop offset=".37" stop-color="#c77430" stop-opacity=".38"/>
      <stop offset=".55" stop-color="#b4532a" stop-opacity=".55"/>
      <stop offset=".71" stop-color="#a63b26" stop-opacity=".72"/>
      <stop offset=".86" stop-color="#9e2d24" stop-opacity=".87"/>
      <stop offset=".99" stop-color="#9b2823"/>
    </linearGradient>
  </defs>
  <g id="Capa_4" data-name="Capa 4">
    <rect class="cls-1" x=".89" y="-281.79" width="1918.22" height="1361.79"/>
    <g class="cls-7">
      <g class="cls-6">
        <g class="cls-5">
          <g>
            <g>
              <path class="cls-3" d="m128.17,397.12c-5.44-2.72-11.93-.42-14.65,5.02s-.42,11.93,5.02,14.65l41.24,20.1c2.72,1.26,5.65,1.47,8.37.42,2.72-.84,4.81-2.93,6.28-5.44,2.72-5.44.42-11.93-5.02-14.65l-41.24-20.1h0Z"/>
              <path class="cls-3" d="m127.54,339.34c-5.44-2.72-11.93-.42-14.65,5.02s-.42,11.93,5.02,14.65l87.72,42.71c2.72,1.26,5.65,1.47,8.37.42s4.81-2.93,6.28-5.44c2.72-5.44.42-11.93-5.02-14.65l-87.72-42.71h0Z"/>
              <path class="cls-3" d="m471.7,141.72c-54.43,18.84-89.39,68.66-91.9,122.89-18.21-3.98-39.98-2.3-63.22,5.65-23.24,7.96-41.45,20.1-53.38,34.54-35.38-41.24-93.58-59.04-148.22-40.19-71.18,24.49-109.07,102.16-84.58,173.55,24.49,71.39,102.16,109.07,173.55,84.58,71.39-24.49,107.81-99.86,85.62-170.2-.21-.84-.42-1.88-.63-2.72-5.23-15.28,16.75-32.87,40.82-41.24,14.44-5.02,29.1-6.7,40.4-4.61,13.82,2.51,16.33,9.63,17.17,11.93.21.63.42,1.26.84,2.09,25.54,69.5,102.16,106.14,172.5,81.85,71.18-24.49,109.07-102.16,84.58-173.55-24.49-71.18-102.16-109.07-173.55-84.58h0ZM190.76,484.42c-50.03,17.17-104.67-9.42-122.05-59.45-17.38-50.03,9.42-104.67,59.45-122.05,50.03-17.17,104.67,9.42,122.05,59.45,17.38,50.03-9.42,104.88-59.45,122.05Zm356.72-122.89c-50.03,17.17-104.67-9.42-122.05-59.45-17.17-50.03,9.42-104.67,59.45-122.05,50.03-17.17,104.67,9.42,122.05,59.45,17.38,50.03-9.42,104.88-59.45,122.05Z"/>
              <path class="cls-3" d="m484.68,274.23c-5.44-2.72-11.93-.42-14.65,5.02s-.42,11.93,5.02,14.65l41.24,20.1c2.72,1.26,5.65,1.47,8.37.42,2.72-.84,5.02-2.93,6.28-5.44,2.72-5.44.42-11.93-5.02-14.65l-41.24-20.1h0Z"/>
              <path class="cls-3" d="m484.26,216.66c-5.44-2.72-11.93-.42-14.65,5.02-2.72,5.44-.42,11.93,5.02,14.65l87.51,42.71c2.72,1.26,5.65,1.47,8.37.42s5.02-2.93,6.28-5.44c2.72-5.44.42-11.93-5.02-14.65l-87.51-42.71h0Z"/>
              <path class="cls-3" d="m458.93,91.48c26.8-8.37,55.69-11.3,83.32-5.23,28.89,6.07,56.52,20.73,77.04,42.5-19.89-34.54-54.85-60.29-93.16-72.01-24.07-7.54-49.61-9.63-74.95-7.96-14.24.42-24.49,15.07-19.89,28.47,3.77,11.3,16.12,17.79,27.63,14.24h0Z"/>
              <path class="cls-3" d="m48.2,277.58c18.63-16.96,33.5-38.1,44.8-60.71,6.7-12.56-.63-28.68-14.65-31.61-11.93-2.72-23.66,4.81-26.38,16.54-6.28,27.42-18.42,53.8-37.47,74.53-19.68,21.77-46.27,38.31-75.57,45.22,39.98.42,79.76-16.75,109.28-43.96h0Z"/>
              <path class="cls-3" d="m373.94,437.31c-39.98,13.82-61.34,57.57-47.52,97.35s57.36,61.34,97.35,47.52c39.98-13.82,61.34-57.57,47.52-97.35-13.82-39.78-57.36-61.34-97.35-47.52h0Zm41.87,121.42c-27.01,9.21-56.52-5.02-65.73-32.03-9.21-27.01,5.02-56.52,32.03-65.73,27.01-9.21,56.52,5.02,65.73,32.03,9.21,27.01-5.02,56.31-32.03,65.73h0Z"/>
            </g>
            <g>
              <path class="cls-3" d="m1294.43,158.68c-3.77-1.88-8.16-.21-10.05,3.35-1.88,3.77-.21,8.16,3.35,10.05l28.05,13.82c1.88.84,3.98,1.05,5.65.42,1.88-.63,3.35-1.88,4.19-3.77,1.88-3.77.21-8.16-3.35-10.05l-27.84-13.82h0Z"/>
              <path class="cls-3" d="m1294.22,119.32c-3.77-1.88-8.16-.21-10.05,3.35-1.88,3.77-.21,8.16,3.35,10.05l59.87,29.1c1.88.84,3.98,1.05,5.65.42,1.88-.63,3.35-1.88,4.19-3.77,1.88-3.77.21-8.16-3.35-10.05l-59.66-29.1h0Z"/>
              <path class="cls-3" d="m1529.1-15.5c-37.26,12.77-61.13,46.89-62.8,83.95-12.35-2.72-27.21-1.47-43.12,3.98-15.91,5.44-28.26,13.82-36.43,23.45-24.07-28.26-63.85-40.19-101.11-27.42-48.57,16.75-74.53,69.71-57.78,118.49,16.75,48.57,69.71,74.53,118.49,57.78,47.94-16.54,73.69-68.04,58.41-116.19-.21-.63-.21-1.26-.42-1.88-3.56-10.47,11.3-22.4,27.84-28.05,9.84-3.35,19.89-4.61,27.63-3.14,9.42,1.67,11.1,6.49,11.72,8.16.21.42.42.84.63,1.26,17.38,47.31,69.71,72.43,117.65,55.89,48.57-16.75,74.53-69.71,57.78-118.49-16.96-48.78-69.92-74.53-118.49-57.78h0Zm-191.76,233.84c-34.12,11.72-71.39-6.49-83.32-40.61-11.72-34.12,6.49-71.39,40.61-83.32,34.12-11.72,71.39,6.49,83.32,40.61,11.72,34.33-6.49,71.6-40.61,83.32Zm243.26-83.95c-34.12,11.72-71.39-6.49-83.32-40.61-11.72-34.12,6.49-71.39,40.61-83.32,34.12-11.72,71.39,6.49,83.32,40.61,11.93,34.33-6.28,71.6-40.61,83.32Z"/>
              <path class="cls-3" d="m1537.9,74.94c-3.77-1.88-8.16-.21-10.05,3.35-1.88,3.77-.21,8.16,3.35,10.05l28.05,13.82c1.88.84,3.98,1.05,5.65.42s3.35-1.88,4.19-3.77c1.88-3.77.21-8.16-3.35-10.05l-27.84-13.82h0Z"/>
              <path class="cls-3" d="m1537.48,35.58c-3.77-1.88-8.16-.21-10.05,3.35-1.88,3.77-.21,8.16,3.35,10.05l59.87,29.1c1.88.84,3.98,1.05,5.65.42s3.35-1.88,4.19-3.77c1.88-3.77.21-8.16-3.35-10.05l-59.66-29.1h0Z"/>
              <path class="cls-3" d="m1240,77.24c12.77-11.72,22.82-25.96,30.56-41.45,4.61-8.58-.42-19.68-10.05-21.56-8.16-1.88-16.12,3.14-18,11.3-4.19,18.63-12.56,36.64-25.54,50.87-13.4,14.86-31.61,26.17-51.5,30.77,27.21.21,54.43-11.51,74.53-29.94h0Z"/>
              <path class="cls-3" d="m1462.32,186.1c-27.21,9.42-41.87,39.15-32.45,66.57,9.42,27.42,39.15,41.87,66.57,32.45,27.21-9.42,41.87-39.15,32.45-66.57-9.42-27.42-39.15-41.87-66.57-32.45h0Zm28.68,82.9c-18.42,6.28-38.52-3.56-44.8-21.98-6.28-18.42,3.56-38.52,21.98-44.8,18.42-6.28,38.52,3.56,44.8,21.98,6.07,18.21-3.56,38.52-21.98,44.8Z"/>
            </g>
            <g>
              <path class="cls-3" d="m764.37,955.65c-4.61-2.09-10.05-.42-12.14,4.19s-.42,10.05,4.19,12.14l34.54,16.75c2.3,1.05,4.81,1.26,6.91.42,2.09-.84,4.19-2.3,5.23-4.61,2.09-4.61.42-10.05-4.19-12.14l-34.54-16.75h0Z"/>
              <path class="cls-3" d="m763.95,907.5c-4.61-2.09-10.05-.42-12.14,4.19s-.42,10.05,4.19,12.14l73.27,35.59c2.3,1.05,4.81,1.26,6.91.42s4.19-2.3,5.23-4.61c2.09-4.61.42-10.05-4.19-12.14l-73.27-35.59h0Z"/>
              <path class="cls-3" d="m1051.59,742.54c-45.64,15.7-74.74,57.36-76.83,102.58-15.28-3.35-33.5-1.88-52.75,4.81-19.47,6.7-34.75,16.75-44.59,28.89-29.52-34.54-78.29-49.41-123.72-33.7-59.66,20.52-91.27,85.41-70.76,144.87,20.52,59.66,85.41,91.27,144.87,70.76,58.62-20.1,90.23-83.32,71.6-142.14-.21-.84-.42-1.47-.63-2.3-4.4-12.77,13.82-27.42,34.12-34.54,12.14-4.19,24.28-5.65,33.7-3.77,11.51,2.09,13.61,7.96,14.24,10.05.21.63.42,1.05.63,1.67,21.35,57.99,85.41,88.55,144.03,68.46,59.66-20.52,91.27-85.41,70.76-144.87-20.52-59.45-85.2-91.27-144.66-70.76h0Zm-234.88,286.17c-41.87,14.44-87.51-7.75-101.95-49.61-14.44-41.87,7.75-87.51,49.61-101.95s87.51,7.75,101.95,49.61c14.44,41.87-7.75,87.51-49.61,101.95Zm298.11-102.58c-41.87,14.44-87.51-7.75-101.95-49.61-14.44-41.87,7.75-87.51,49.61-101.95,41.87-14.44,87.51,7.75,101.95,49.61,14.44,41.87-7.75,87.51-49.61,101.95Z"/>
              <path class="cls-3" d="m1062.26,853.07c-4.61-2.09-10.05-.42-12.14,4.19s-.42,10.05,4.19,12.14l34.33,16.75c2.3,1.05,4.81,1.26,6.91.42,2.09-.84,4.19-2.3,5.23-4.61,2.09-4.61.42-10.05-4.19-12.14l-34.33-16.75h0Z"/>
              <path class="cls-3" d="m1061.85,804.92c-4.61-2.09-10.05-.42-12.14,4.19s-.42,10.05,4.19,12.14l73.27,35.59c2.3,1.05,4.81,1.26,6.91.42,2.09-.84,4.19-2.3,5.23-4.61,2.09-4.61.42-10.05-4.19-12.14l-73.27-35.59h0Z"/>
              <path class="cls-3" d="m1040.7,700.25c22.4-7.12,46.47-9.42,69.5-4.4,24.07,5.02,47.1,17.38,64.48,35.59-16.75-28.89-45.64-50.45-77.88-60.29-20.1-6.28-41.45-8.16-62.59-6.7-11.72.42-20.52,12.56-16.75,23.87,3.35,9.63,13.61,15.07,23.24,11.93h0Z"/>
              <path class="cls-3" d="m697.59,856c15.7-14.24,27.84-31.82,37.47-50.66,5.65-10.47-.63-24.07-12.14-26.38-9.84-2.3-19.68,3.98-21.98,13.82-5.23,22.82-15.28,44.8-31.19,62.38-16.54,18.21-38.73,32.03-63.22,37.68,33.29,0,66.57-14.24,91.06-36.84h0Z"/>
              <path class="cls-3" d="m969.73,989.35c-33.5,11.51-51.29,47.94-39.78,81.44s47.94,51.29,81.43,39.78c33.5-11.51,51.29-47.94,39.78-81.44s-47.94-51.29-81.43-39.78h0Zm34.96,101.32c-22.61,7.75-47.1-4.19-54.85-26.8-7.75-22.61,4.19-47.1,26.8-54.85,22.61-7.75,47.1,4.19,54.85,26.8,7.75,22.61-4.19,47.1-26.8,54.85Z"/>
            </g>
            <g>
              <path class="cls-3" d="m918.03,608.56c3.35-1.67,7.54-.21,9.21,3.14s.21,7.54-3.14,9.21l-25.96,12.56c-1.67.84-3.56.84-5.23.21s-3.14-1.88-3.98-3.56c-1.67-3.35-.21-7.54,3.14-9.21l25.96-12.35Z"/>
              <path class="cls-3" d="m918.45,572.34c3.35-1.67,7.54-.21,9.21,3.14s.21,7.54-3.14,9.21l-55.06,26.8c-1.67.84-3.56.84-5.23.21s-3.14-1.88-3.98-3.56c-1.67-3.35-.21-7.54,3.14-9.21l55.06-26.59Z"/>
              <path class="cls-3" d="m593.33,501.37c-15.49,44.8,8.37,93.58,53.17,108.86,44.17,15.28,92.32-7.75,108.23-51.5.21-.42.42-.84.42-1.26.42-1.47,2.09-5.86,10.68-7.54,7.12-1.26,16.33-.21,25.33,2.93,15.28,5.23,28.89,16.33,25.54,25.96-.21.63-.42,1.05-.42,1.67-14.03,44.17,9.84,91.69,53.8,106.77,44.8,15.49,93.58-8.37,108.86-53.17,15.28-44.8-8.37-93.58-53.17-108.86-34.33-11.72-70.76-.63-92.95,25.33-7.54-9-18.84-16.75-33.5-21.77s-28.26-6.07-39.78-3.56c-1.47-34.12-23.45-65.32-57.78-77.25-44.38-15.07-93.16,8.79-108.44,53.38h0Zm248.07,85.41c10.89-31.4,45.01-48.15,76.62-37.26,31.4,10.89,48.15,45.01,37.26,76.62-10.89,31.61-45.01,48.15-76.62,37.26-31.61-10.89-48.15-45.01-37.26-76.62h0Zm-224-77.04c10.89-31.4,45.01-48.15,76.62-37.26s48.15,45.01,37.26,76.62c-10.89,31.4-45.01,48.15-76.62,37.26-31.61-10.89-48.15-45.22-37.26-76.62h0Z"/>
              <path class="cls-3" d="m694.03,531.52c3.35-1.67,7.54-.21,9.21,3.14s.21,7.54-3.14,9.21l-25.96,12.56c-1.67.84-3.56.84-5.23.21s-3.14-1.88-3.98-3.56c-1.67-3.35-.21-7.54,3.14-9.21l25.96-12.35Z"/>
              <path class="cls-3" d="m694.45,495.3c3.35-1.67,7.54-.21,9.21,3.14s.21,7.54-3.14,9.21l-55.06,26.8c-1.67.84-3.56.84-5.23.21s-3.14-1.88-3.98-3.56c-1.67-3.35-.21-7.54,3.14-9.21l55.06-26.59Z"/>
              <path class="cls-3" d="m710.36,416.59c-16.75-5.23-34.96-7.12-52.34-3.35-18,3.77-35.38,12.98-48.36,26.8,12.56-21.77,34.33-37.89,58.41-45.22,15.07-4.81,31.19-6.07,47.1-5.02,8.79.21,15.28,9.42,12.56,18-2.51,7.12-10.26,11.1-17.38,8.79h0Z"/>
              <path class="cls-3" d="m968.06,533.61c-11.72-10.68-20.93-23.87-28.05-38.1-4.19-7.75.42-18,9.21-19.89,7.33-1.67,14.86,2.93,16.54,10.47,3.98,17.17,11.51,33.7,23.45,46.89,12.35,13.61,29.1,24.07,47.52,28.26-25.12.21-50.03-10.68-68.67-27.63h0Z"/>
              <path class="cls-3" d="m702.4,663.61c-8.58,25.12,4.81,52.55,29.73,61.13,25.12,8.58,52.55-4.81,61.13-29.73,8.58-25.12-4.81-52.55-29.73-61.13-25.12-8.79-52.55,4.61-61.13,29.73Zm14.86,5.02c5.86-16.96,24.28-25.96,41.24-20.1,16.96,5.86,25.96,24.28,20.1,41.24-5.86,16.96-24.28,25.96-41.24,20.1-16.96-5.65-25.96-24.28-20.1-41.24Z"/>
            </g>
            <g>
              <path class="cls-3" d="m1946.54,321.13c3.14-1.47,6.91-.21,8.37,2.93s.21,6.91-2.93,8.37l-50.03,24.28c-1.47.84-3.14.84-4.81.21s-2.72-1.67-3.56-3.14c-1.47-3.14-.21-6.91,2.93-8.37l50.03-24.28h0Z"/>
              <path class="cls-3" d="m1650.94,256.44c-14.03,40.82,7.54,84.99,48.36,99.02,40.19,13.82,83.95-7.12,98.6-46.68.21-.42.42-.84.42-1.05.42-1.26,1.88-5.23,9.84-6.7,6.49-1.26,14.86-.21,23.03,2.51,13.82,4.81,26.38,14.86,23.45,23.45-.21.42-.21,1.05-.42,1.47-12.77,40.19,8.79,83.32,48.99,97.14,40.82,14.03,84.99-7.54,99.02-48.36s-7.54-84.99-48.36-99.02c-31.19-10.68-64.48-.63-84.58,23.03-6.7-8.16-17.17-15.07-30.56-19.68-13.19-4.61-25.75-5.44-36.22-3.35-1.47-30.98-21.35-59.45-52.55-70.13-40.82-14.03-85.2,7.75-99.02,48.36h0Zm225.46,77.88c9.84-28.68,41.03-43.75,69.71-33.91s43.75,41.03,33.91,69.71c-9.84,28.68-41.03,43.75-69.71,33.91-28.47-10.05-43.75-41.24-33.91-69.71h0Zm-203.69-70.13c9.84-28.68,41.03-43.75,69.71-33.91,28.68,9.84,43.75,41.03,33.91,69.71s-41.03,43.75-69.71,33.91c-28.47-10.05-43.75-41.24-33.91-69.71Z"/>
              <path class="cls-3" d="m1742.42,283.86c3.14-1.47,6.91-.21,8.37,2.93s.21,6.91-2.93,8.37l-23.45,11.51c-1.47.84-3.14.84-4.81.21s-2.72-1.67-3.56-3.14c-1.47-3.14-.21-6.91,2.93-8.37l23.45-11.51h0Z"/>
              <path class="cls-3" d="m1742.84,251c3.14-1.47,6.91-.21,8.37,2.93s.21,6.91-2.93,8.37l-50.03,24.49c-1.47.84-3.14.84-4.81.21s-2.72-1.67-3.56-3.14c-1.47-3.14-.21-6.91,2.93-8.37l50.03-24.49h0Z"/>
              <path class="cls-3" d="m1757.29,179.4c-15.28-4.81-31.82-6.49-47.52-2.93-16.33,3.56-32.24,11.72-43.96,24.28,11.3-19.68,31.19-34.54,53.17-41.24,13.82-4.4,28.26-5.44,42.71-4.61,8.16.21,14.03,8.58,11.3,16.33-2.09,6.7-9,10.26-15.7,8.16h0Z"/>
              <path class="cls-3" d="m1750.17,404.03c-7.96,22.82,4.4,47.73,27.21,55.69,22.82,7.96,47.73-4.4,55.69-27.21,7.96-22.82-4.4-47.73-27.21-55.69-23.03-7.75-47.94,4.4-55.69,27.21Zm13.4,4.81c5.23-15.49,22.19-23.66,37.47-18.42s23.66,22.19,18.42,37.47c-5.23,15.28-22.19,23.66-37.47,18.42s-23.66-22.19-18.42-37.47Z"/>
            </g>
            <g>
              <path class="cls-3" d="m1973.33,916.29c4.81-2.3,10.47-.42,12.77,4.4s.42,10.47-4.4,12.77l-76.41,37.26c-2.3,1.05-5.02,1.26-7.33.42s-4.4-2.51-5.44-4.81c-2.3-4.81-.42-10.47,4.4-12.77l76.41-37.26h0Z"/>
              <path class="cls-3" d="m1521.15,817.69c-21.35,62.18,11.72,130,73.9,151.57,61.34,21.14,128.33-10.89,150.52-71.6.21-.63.42-1.05.63-1.67.63-2.09,2.72-8.16,14.86-10.47,9.84-1.88,22.61-.42,35.38,3.98,21.14,7.33,40.19,22.82,35.59,36.01-.21.84-.42,1.67-.63,2.3-19.47,61.34,13.61,127.49,74.74,148.43,62.18,21.35,130-11.72,151.57-73.9,21.56-62.18-11.72-130-73.9-151.57-47.52-16.33-98.39-.84-129.37,35.17-10.47-12.56-26.38-23.03-46.68-30.15-20.31-6.91-39.36-8.37-55.27-5.02-2.09-47.31-32.66-90.86-80.18-107.18-61.76-21.14-129.58,11.93-151.15,74.11h0Zm345,118.91c15.07-43.75,62.8-66.99,106.56-51.92,43.75,15.07,66.99,62.8,51.92,106.56-15.07,43.75-62.8,66.99-106.56,51.92-43.75-15.28-66.99-62.8-51.92-106.56Zm-311.5-107.18c15.07-43.75,62.8-66.99,106.56-51.92,43.75,15.07,66.99,62.8,51.92,106.56-15.07,43.75-62.8,66.99-106.56,51.92-43.75-15.28-66.99-62.8-51.92-106.56Z"/>
              <path class="cls-3" d="m1661.41,859.56c4.81-2.3,10.47-.42,12.77,4.4,2.3,4.81.42,10.47-4.4,12.77l-36.01,17.58c-2.3,1.05-5.02,1.26-7.33.42s-4.4-2.51-5.44-4.81c-2.3-4.81-.42-10.47,4.4-12.77l36.01-17.58h0Z"/>
              <path class="cls-3" d="m1661.83,809.11c4.81-2.3,10.47-.42,12.77,4.4,2.3,4.81.42,10.47-4.4,12.77l-76.41,37.26c-2.3,1.05-5.02,1.26-7.33.42s-4.4-2.51-5.44-4.81c-2.3-4.81-.42-10.47,4.4-12.77l76.41-37.26h0Z"/>
              <path class="cls-3" d="m1684.02,699.83c-23.45-7.33-48.57-9.84-72.64-4.61-25.12,5.23-49.2,18-67.2,37.05,17.38-30.15,47.73-52.75,81.23-63.01,21.14-6.49,43.33-8.37,65.32-7.12,12.35.42,21.35,13.19,17.38,24.91-3.35,10.47-14.03,16.12-24.07,12.77h0Z"/>
              <path class="cls-3" d="m1672.92,1043.36c-11.93,34.96,6.7,73.06,41.45,84.99,34.75,11.93,73.06-6.7,84.99-41.45,11.93-34.75-6.7-73.06-41.45-84.99-34.75-11.93-73.06,6.49-84.99,41.45Zm20.52,7.12c8.16-23.45,33.91-36.01,57.36-28.05,23.45,7.96,36.01,33.91,28.05,57.36-8.16,23.45-33.91,36.01-57.36,28.05-23.45-8.16-36.01-33.91-28.05-57.36Z"/>
            </g>
            <g>
              <path class="cls-3" d="m1108.11,296.84c-1.26-2.51-4.19-3.56-6.7-2.3s-3.56,4.19-2.3,6.7l9.21,18.84c.63,1.26,1.67,2.09,2.93,2.51s2.51.42,3.77-.21c2.51-1.26,3.56-4.19,2.3-6.7l-9.21-18.84Z"/>
              <path class="cls-3" d="m1124.23,275.91c-1.26-2.51-4.19-3.56-6.7-2.3s-3.56,4.19-2.3,6.7l19.47,39.98c.63,1.26,1.67,2.09,2.93,2.51s2.51.42,3.77-.21c2.51-1.26,3.56-4.19,2.3-6.7l-19.47-39.98Z"/>
              <path class="cls-3" d="m960.31,245.76c-1.26-2.51-4.19-3.56-6.7-2.3-2.51,1.26-3.56,4.19-2.3,6.7l9.21,18.84c.63,1.26,1.67,2.09,2.93,2.51s2.51.42,3.77-.21c2.51-1.26,3.56-4.19,2.3-6.7l-9.21-18.84Z"/>
              <path class="cls-3" d="m976.43,224.83c-1.26-2.51-4.19-3.56-6.7-2.3-2.51,1.26-3.56,4.19-2.3,6.7l19.47,39.98c.63,1.26,1.67,2.09,2.93,2.51s2.51.42,3.77-.21c2.51-1.26,3.56-4.19,2.3-6.7l-19.47-39.98Z"/>
              <path class="cls-3" d="m1217.6,241.37c-6.49-9.42-15.07-17.58-24.7-24.07-5.23-3.77-12.98-1.47-15.28,4.61-1.88,5.23.63,11.1,5.86,12.98,11.93,4.4,23.24,11.72,31.4,21.56,8.58,10.26,14.44,23.45,15.91,37.05,2.72-18-2.72-37.05-13.19-52.13h0Z"/>
              <path class="cls-3" d="m990.46,157.63c2.09-6.07-2.72-12.77-9.21-12.98-11.51-.84-23.24.21-34.33,3.77-17.58,5.44-33.5,17.17-42.5,33.08,9.42-10.05,22.19-16.75,35.38-19.47,12.56-2.72,25.96-1.47,38.1,2.3,5.23,1.47,10.89-1.47,12.56-6.7h0Z"/>
              <path class="cls-3" d="m1185.36,260.63l-84.78-29.1c-9.21-3.14-19.05,1.67-22.19,10.89l-11.51,33.5-29.94-10.26,11.51-33.5c3.14-9.21-1.67-19.05-10.89-22.19l-84.78-29.1c-9.21-3.14-19.05,1.67-22.19,10.89l-29.31,84.78c-3.14,9.21,1.67,19.05,10.89,22.19l84.78,29.31c9.21,3.14,19.05-1.67,22.19-10.89l10.68-31.19,29.94,10.26-10.68,31.19c-3.14,9.21,1.67,19.05,10.89,22.19l84.78,29.31c9.21,3.14,19.05-1.67,22.19-10.89l29.31-84.78c3.14-9.42-1.67-19.47-10.89-22.61Zm-177.73,32.66c-3.14,9.21-12.98,14.03-22.19,10.89l-49.82-17.17c-9.21-3.14-14.03-12.98-10.89-22.19l17.17-49.82c3.14-9.21,12.98-14.03,22.19-10.89l49.82,17.17c9.21,3.14,14.03,12.98,10.89,22.19l-17.17,49.82h0Zm147.8,50.87c-3.14,9.21-12.98,14.03-22.19,10.89l-49.82-17.17c-9.21-3.14-14.03-12.98-10.89-22.19l17.17-49.82c3.14-9.21,12.98-14.03,22.19-10.89l49.82,17.17c9.21,3.14,14.03,12.98,10.89,22.19l-17.17,49.82Z"/>
              <path class="cls-3" d="m1039.45,367.39c-3.56,10.26-14.65,15.7-24.91,12.14-10.26-3.56-15.7-14.65-12.14-24.91l1.26-3.98-18.63-6.49-1.26,3.98c-7.12,20.52,3.98,42.92,24.28,49.82,20.52,7.12,42.92-3.98,49.82-24.28l1.26-3.98-18.63-6.49-1.05,4.19h0Z"/>
            </g>
            <g>
              <path class="cls-3" d="m439.26-143.41l-119.75-41.24c-12.77-4.4-27.01,2.51-31.4,15.28l-16.33,47.1-42.29-14.65,16.33-47.1c4.4-12.98-2.51-27.01-15.28-31.4l-119.95-41.24c-12.98-4.4-27.01,2.3-31.4,15.28l-41.24,119.95c-4.4,12.98,2.3,27.01,15.28,31.4l119.75,41.24c12.98,4.4,27.01-2.51,31.4-15.28l15.07-43.96,42.29,14.65-15.07,43.96c-4.4,12.98,2.51,27.01,15.28,31.4l119.75,41.24c12.77,4.4,27.01-2.3,31.4-15.28l41.45-120.16c4.4-12.77-2.51-26.8-15.28-31.19h0Zm-251,45.85c-4.4,12.98-18.42,19.68-31.4,15.28l-70.13-24.07c-12.98-4.4-19.68-18.42-15.28-31.4l24.07-70.13c4.4-12.77,18.42-19.68,31.4-15.28l70.34,24.28c12.98,4.4,19.68,18.42,15.28,31.4-.21-.21-24.28,69.92-24.28,69.92ZM396.97-25.55c-4.4,12.77-18.42,19.68-31.4,15.28l-70.34-24.28c-12.77-4.4-19.68-18.42-15.28-31.4l24.28-70.34c4.4-12.98,18.42-19.68,31.4-15.28l70.34,24.07c12.77,4.4,19.68,18.42,15.28,31.4l-24.28,70.55Z"/>
              <path class="cls-3" d="m233.05,7.11c-5.02,14.44-20.73,21.98-34.96,17.17-14.44-5.02-21.98-20.73-17.17-34.96l1.88-5.44-26.38-9-1.88,5.44c-10.05,28.89,5.44,60.5,34.33,70.34,28.89,9.84,60.5-5.44,70.34-34.33l1.88-5.44-26.38-9-1.67,5.23h0Z"/>
            </g>
            <g>
              <path class="cls-3" d="m335.42,929.9c-1.88-3.98-6.91-5.86-10.89-3.77s-5.86,6.91-3.77,10.89l15.07,30.98c1.05,2.09,2.72,3.56,4.61,4.19s4.19.63,6.28-.42c3.98-2.09,5.86-6.91,3.77-10.89l-15.07-30.98h0Z"/>
              <path class="cls-3" d="m361.8,895.36c-1.88-3.98-6.91-5.86-10.89-3.77s-5.86,6.91-3.77,10.89l32.03,65.94c1.05,2.09,2.72,3.56,4.61,4.19s4.19.63,6.28-.42c3.98-2.09,5.86-6.91,3.77-10.89l-32.03-65.94h0Z"/>
              <path class="cls-3" d="m92.58,846.16c-2.09-3.98-6.91-5.86-10.89-3.77s-5.86,6.91-3.77,10.89l15.07,30.98c1.05,2.09,2.72,3.56,4.61,4.19s4.19.63,6.28-.42c3.98-2.09,5.86-6.91,3.77-10.89l-15.07-30.98h0Z"/>
              <path class="cls-3" d="m118.75,811.83c-2.09-3.98-6.91-5.86-10.89-3.77s-5.86,6.91-3.77,10.89l32.03,65.94c1.05,2.09,2.72,3.56,4.61,4.19s4.19.63,6.28-.42c3.98-2.09,5.86-6.91,3.77-10.89l-32.03-65.94h0Z"/>
              <path class="cls-3" d="m515.04,838.84c-10.89-15.7-24.91-28.68-40.61-39.36-8.58-6.28-21.35-2.3-25.12,7.75-3.14,8.58,1.05,18,9.63,21.35,19.68,7.33,38.1,19.05,51.71,35.38,14.24,16.96,23.87,38.31,25.96,60.71,4.4-29.73-4.19-61.13-21.56-85.83h0Z"/>
              <path class="cls-3" d="m142.2,701.3c3.35-10.05-4.4-21.14-15.07-21.56-19.05-1.26-38.1.42-56.31,6.07-28.68,8.79-54.85,28.26-69.92,54.22,15.49-16.33,36.22-27.42,57.99-32.03,20.73-4.4,42.5-2.3,62.59,3.98,8.58,2.93,17.79-2.09,20.73-10.68h0Z"/>
              <path class="cls-3" d="m462.28,870.66l-139.42-47.94c-15.07-5.23-31.4,2.72-36.43,17.79l-18.84,54.85-49.2-16.96,18.84-54.85c5.23-15.07-2.72-31.4-17.79-36.43l-139.42-47.94c-15.07-5.23-31.4,2.72-36.43,17.79L-4.35,896.2c-5.23,15.07,2.72,31.4,17.79,36.43l139.21,47.94c15.07,5.23,31.4-2.72,36.43-17.79l17.58-51.08,49.2,16.96-17.58,51.08c-5.23,15.07,2.72,31.4,17.79,36.43l139.21,47.94c15.07,5.23,31.4-2.72,36.43-17.79l47.94-139.21c5.44-15.07-2.51-31.4-17.38-36.43h0Zm-292.04,53.38c-5.23,15.07-21.56,23.03-36.43,17.79l-81.64-28.05c-15.07-5.23-23.03-21.56-17.79-36.43l28.05-81.64c5.23-15.07,21.56-23.03,36.43-17.79l81.64,28.05c15.07,5.23,23.03,21.56,17.79,36.43l-28.05,81.64Zm242.84,83.74c-5.23,15.07-21.56,23.03-36.43,17.79l-81.64-28.05c-15.07-5.23-23.03-21.56-17.79-36.43l28.05-81.64c5.23-15.07,21.56-23.03,36.43-17.79l81.64,28.05c15.07,5.23,23.03,21.56,17.79,36.43l-28.05,81.64h0Z"/>
              <path class="cls-3" d="m222.37,1045.67c-5.86,16.75-24.07,25.54-40.82,19.89-16.75-5.86-25.54-24.07-19.89-40.82l2.3-6.49-30.56-10.47-2.3,6.49c-11.51,33.5,6.28,70.34,39.98,81.85,33.5,11.51,70.34-6.28,81.85-39.98l2.3-6.49-30.56-10.47-2.3,6.49h0Z"/>
            </g>
            <g>
              <path class="cls-3" d="m1313.27,578.41c1.88-3.98,6.7-5.65,10.68-3.77,3.98,1.88,5.65,6.7,3.77,10.68l-14.86,30.35c-1.05,2.09-2.72,3.35-4.61,4.19s-4.19.63-6.07-.42c-3.98-1.88-5.65-6.7-3.77-10.68l14.86-30.35h0Z"/>
              <path class="cls-3" d="m1287.52,544.5c1.88-3.98,6.7-5.65,10.68-3.77,3.98,1.88,5.65,6.7,3.77,10.68l-31.4,64.48c-1.05,2.09-2.72,3.35-4.61,4.19s-4.19.63-6.07-.42c-3.98-1.88-5.65-6.7-3.77-10.68l31.4-64.48h0Z"/>
              <path class="cls-3" d="m1551.5,496.35c1.88-3.98,6.7-5.65,10.68-3.77,3.98,1.88,5.65,6.7,3.77,10.68l-14.86,30.35c-1.05,2.09-2.72,3.35-4.61,4.19s-4.19.63-6.07-.42c-3.98-1.88-5.65-6.7-3.77-10.68l14.86-30.35h0Z"/>
              <path class="cls-3" d="m1525.54,462.64c1.88-3.98,6.7-5.65,10.68-3.77,3.98,1.88,5.65,6.7,3.77,10.68l-31.4,64.48c-1.05,2.09-2.72,3.35-4.61,4.19s-4.19.63-6.07-.42c-3.98-1.88-5.65-6.7-3.77-10.68l31.4-64.48h0Z"/>
              <path class="cls-3" d="m1137,489.02c10.68-15.28,24.49-28.26,39.78-38.73,8.37-6.07,20.93-2.3,24.49,7.54,3.14,8.37-1.05,17.79-9.42,20.93-19.26,7.33-37.47,18.84-50.66,34.75-14.03,16.54-23.45,37.68-25.54,59.66-3.98-29.1,4.61-59.87,21.35-84.16h0Z"/>
              <path class="cls-3" d="m1502.73,354.2c-3.35-10.05,4.19-20.73,14.65-21.14,18.63-1.26,37.47.42,55.27,5.86,28.26,8.58,53.8,27.63,68.66,53.17-15.07-16.12-35.59-26.8-56.73-31.4-20.31-4.4-41.66-2.3-61.34,3.98-8.58,2.72-17.79-1.88-20.52-10.47h0Z"/>
              <path class="cls-3" d="m1171.54,556.01l47.1,136.49c5.02,14.65,21.14,22.61,35.8,17.38l136.49-47.1c14.65-5.02,22.61-21.14,17.38-35.8l-17.17-50.24,48.36-16.75,17.17,50.24c5.02,14.65,21.14,22.61,35.8,17.38l136.49-47.1c14.65-5.02,22.61-21.14,17.38-35.8l-47.1-136.49c-5.02-14.65-21.14-22.61-35.8-17.38l-136.28,47.52c-14.65,5.02-22.61,21.14-17.38,35.8l18.42,53.8-48.36,16.75-18.42-53.8c-5.02-14.65-21.14-22.61-35.8-17.38l-136.49,47.1c-14.86,4.61-22.61,20.73-17.58,35.38Zm276.13-63.43c-5.02-14.65,2.72-30.77,17.38-35.8l80.18-27.63c14.65-5.02,30.77,2.72,35.8,17.38l27.63,80.18c5.02,14.65-2.72,30.77-17.38,35.8l-80.18,27.63c-14.65,5.02-30.77-2.72-35.8-17.38l-27.63-80.18Zm-238.23,81.85c-5.02-14.65,2.72-30.77,17.38-35.8l80.18-27.63c14.65-5.02,30.77,2.72,35.8,17.38l27.63,80.18c5.02,14.65-2.72,30.77-17.38,35.8l-80.18,27.63c-14.65,5.02-30.77-2.72-35.8-17.38l-27.63-80.18Z"/>
              <path class="cls-3" d="m1424.01,691.88c5.65,16.33,23.66,25.12,39.98,19.47,16.33-5.65,25.12-23.66,19.47-39.98l-2.09-6.28,29.94-10.26,2.09,6.28c11.3,32.87-6.28,68.87-39.15,80.18-32.87,11.3-68.87-6.28-80.18-39.15l-2.09-6.28,29.94-10.26,2.09,6.28Z"/>
            </g>
            <g>
              <path class="cls-3" d="m613.43-107.82l57.15,165.8c6.07,17.79,25.54,27.21,43.33,21.14l165.8-57.15c17.79-6.07,27.21-25.54,21.14-43.33l-20.93-60.92,58.62-20.1,20.93,60.92c6.07,17.79,25.54,27.21,43.33,21.14l165.8-57.15c17.79-6.07,27.21-25.54,21.14-43.33l-57.15-165.8c-6.07-17.79-25.54-27.21-43.33-21.14l-165.8,57.15c-17.79,6.07-27.21,25.54-21.14,43.33l22.4,65.32-58.62,20.1-22.4-65.32c-6.07-17.79-25.54-27.21-43.33-21.14l-165.8,57.15c-17.79,6.07-27.21,25.54-21.14,43.33Zm334.95-77.04c-6.07-17.79,3.35-37.26,21.14-43.33l97.14-33.5c17.79-6.07,37.26,3.35,43.33,21.14l33.5,97.14c6.07,17.79-3.35,37.26-21.14,43.33l-97.14,33.5c-17.79,6.07-37.26-3.35-43.33-21.14l-33.5-97.14h0Zm-288.9,99.44c-6.07-17.79,3.35-37.26,21.14-43.33l97.14-33.5c17.79-6.07,37.26,3.35,43.33,21.14l33.5,97.14c6.07,17.79-3.35,37.26-21.14,43.33l-97.14,33.5c-17.79,6.07-37.26-3.35-43.33-21.14,0,.21-33.5-97.14-33.5-97.14Z"/>
              <path class="cls-3" d="m919.7,57.14c6.91,19.89,28.68,30.56,48.57,23.66,19.89-6.91,30.56-28.68,23.66-48.57l-2.72-7.75,36.43-12.56,2.72,7.75c13.82,39.98-7.54,83.53-47.52,97.35-39.98,13.82-83.74-7.54-97.35-47.52l-2.72-7.75,36.43-12.56,2.51,7.96h0Z"/>
            </g>
          </g>
        </g>
      </g>
    </g>
  </g>
  <rect class="cls-4" x=".89" y="-281.79" width="1918.22" height="1361.79"/>
</svg>