<?xml version="1.0" encoding="utf-8"?>
<!-- Generator: Adobe Illustrator 28.0.0, SVG Export Plug-In . SVG Version: 6.00 Build 0)  -->
<svg version="1.1" id="Capa_2_00000149350670362317928120000011525623117133630391_"
	 xmlns="http://www.w3.org/2000/svg" xmlns:xlink="http://www.w3.org/1999/xlink" x="0px" y="0px" viewBox="0 0 1920 1350.3"
	 style="enable-background:new 0 0 1920 1350.3;" xml:space="preserve">
<style type="text/css">
	.st0{opacity:0.75;fill:#FFD741;}
	.st1{opacity:0.15;fill:#E73E26;enable-background:new    ;}
	.st2{opacity:0.15;}
	.st3{fill:#E73E26;}
</style>
<rect y="-5.8" class="st0" width="1920" height="1361.8"/>
<path class="st1" d="M610.7,511.4c-19.1-26.6-56.2-32.2-89.1-31.2c-32.7,1.1-66.8,6.5-97-6.1c-49.1-20.6-67.6-78.7-89.1-127.5
	c-17.8-40.7-41.9-79.4-75.9-107.9c-33.9-28.5-78.8-45.8-122.7-40.3c-15.5,2-31.1,7-42.3,17.8c-11,10.7-16.5,25.6-21.8,40
	C50.3,317,3.4,363.1-56,388.9c-61.4,26.6-114.8,19.9-180.8,30.8c-76.5,12.6-139.9,82-145.8,159.5c-5.9,77.6,62.7,210,130.4,247.9
	c133,74.3,161.7-94.7,234.5-31.5C8,817.8-78.2,826.5-53.8,912.2c9.3,32.7,97,168.7,201.2,133.4c37.4-12.7,209.1-211.7,248-218.4
	c35.5-6.1,16.5,115.3,112.8,109.6c35.9-2.2,107-69.1,124-100.9c11.9-22.1,7.1-50.3-6.3-71.5c-13.4-21.1-34.3-36.3-55.7-49.3
	c-27.8-16.9-60.5-35.2-66.5-67.3c-1.5-8.3-0.4-18.3,6.6-23.1c5.8-3.9,13.4-3,20.4-2.6c28.3,1.6,58.1-9,75.8-31.3
	C624.2,568.5,627.3,534.5,610.7,511.4L610.7,511.4z"/>
<g class="st2">
	<path class="st3" d="M1075.5,1099.8c-58.1,21-116.9,39.9-175.9,58.4c-6.4,2.1-13.2-1.1-16-7.1c-10.9-23.6-19-48-25.9-72.9
		c-1.6-8.7,2-9.8,9.1,0c31.9,44.4,135.7,12.2,173-0.1c9.2-3,13.8-11.1,12.1-20.6c-6-33.7-10.7-66.8-22.7-99
		c-3.2-8.4-11.3-15.2-20.9-12.3c-26.5,8.1-52.2,15.9-80,17.8c-8.8,0.6-18.3,7.3-17.5,17.3c1.5,20.1,4.6,37.9,13.1,56.3
		c4.1,8.8,14.8,6.3,23.7,6.7c12.7,0.6,22-2.2,34-1.8c17.3,0.5,19.7-24.3,4.1-29.4c-12.7-4.2-22.1-6.9-31.9-6.3
		c-2.7,0.2-5.1-1.7-5.7-4.3v-0.1c-0.7-3.1,1.4-6.2,4.6-6.7c14.7-2.5,29.1-6,43.5-10.1c2.9-0.8,6,0.8,6.9,3.8
		c5.5,18.8,9.2,37.8,12.7,57.1c0.5,2.6-0.9,5.2-3.4,6.2c-37.7,15-108.1,42.7-120.9,16.8c-17.2-35-29.2-79-33.7-119.2
		c-0.3-2.6,1.2-5,3.7-5.9c25.4-9,51.6-16.4,77.9-21.8c20.6-4.2,75.4-20.4,91.3,0.9c32.8,43.7,41.5,113.7,48.5,170.3
		C1079.5,1096.5,1078,1098.9,1075.5,1099.8L1075.5,1099.8z"/>
	<path class="st3" d="M1203.7,1026.6c9.2,28.6,17.5,57.6,25.6,86.4c0.9,3.2-0.7,6.4-3.7,7.7c-11.6,4.9-23.5,8.5-35.7,11.5
		c-4.2,0.7-4.7-1.1,0.2-4.4c22-14.8,8.1-65.9,2.7-84.3c-1.3-4.5-5.2-6.9-9.8-6.2c-16.4,2.4-32.5,4.1-48.3,9.5
		c-4.2,1.4-7.6,5.3-6.3,10c3.6,13,6.9,25.6,7.4,39.2c0.1,4.3,3.2,9,8.1,8.8c9.8-0.4,18.5-1.7,27.5-5.5c4.3-1.8,3.3-7.1,3.6-11.4
		c0.4-6.2-0.8-10.7-0.4-16.6c0.5-8.5-11.5-10-14.2-2.5c-2.2,6.1-3.6,10.6-3.5,15.4c0,1.3-0.9,2.4-2.2,2.7l0,0
		c-1.5,0.3-3-0.7-3.2-2.3c-1-7.2-2.4-14.2-4.2-21.3c-0.4-1.4,0.4-2.9,1.9-3.3c9.1-2.4,18.4-3.9,27.8-5.3c1.3-0.2,2.6,0.6,3,1.8
		c6.6,18.6,18.9,53.4,6.2,59.2c-17.2,7.9-38.8,13-58.3,14.6c-1.3,0.1-2.4-0.7-2.8-1.9c-3.9-12.5-7.1-25.4-9.3-38.3
		c-1.7-10.1-8.6-37.1,1.9-44.5c21.6-15.2,55.7-18.4,83.2-20.9C1202.1,1024.6,1203.3,1025.4,1203.7,1026.6L1203.7,1026.6z"/>
	<path class="st3" d="M1094.9,1135.2c21.6,47.4,41.6,95.4,61.3,143.6c2.2,5.2,0.1,11.1-4.8,13.9c-18.9,10.8-38.7,19.4-59,26.9
		c-7.1,2-8.3-1-0.6-7.6c34.8-29.9,0.6-114.9-12.3-145.3c-3.1-7.5-10.2-10.8-18-8.7c-27.7,7.4-55,13.6-81,26
		c-6.8,3.2-11.9,10.5-8.8,18.4c8.6,21.6,16.9,42.7,20.4,65.9c1.1,7.4,7.4,14.8,15.7,13.5c16.7-2.7,31.3-6.6,46.1-15
		c7.1-4,4.2-12.8,3.9-20.3c-0.4-10.8-3.4-18.4-3.9-28.5c-0.8-14.6-21.6-14.9-24.8-1.4c-2.6,10.9-4.2,19-3,27.2
		c0.3,2.3-1.1,4.4-3.2,5.1h-0.1c-2.6,0.8-5.3-0.8-6-3.4c-3.1-12.2-7.1-24-11.5-35.8c-0.9-2.4,0.3-5.2,2.7-6.1
		c15.2-5.8,30.9-10.3,46.7-14.6c2.1-0.6,4.4,0.4,5.4,2.4c15.1,30.7,43.2,87.9,22.5,100.4c-28,16.9-63.9,30.1-97.1,36.7
		c-2.2,0.4-4.3-0.7-5.2-2.7c-9.2-20.7-17.3-42.2-23.6-63.9c-5-16.9-22.3-61.8-5.7-76.7c34.2-30.6,92-42.8,138.7-52.7
		C1091.8,1132.1,1094,1133.2,1094.9,1135.2L1094.9,1135.2z"/>
</g>
<path class="st1" d="M1844,530.8c20.6,26.3-24.8,69.4-24.8,69.4l-126.6,122.2c-45.2,48.7-114.3-2.5-114.3-2.5
	s-169.8-131.5-172.1-197c-3.1-85.3,191.3-260,191.3-260c73.4-71.8,209.7-52.5,209.7-52.5s26.3,9.2,32.2,2.8
	c9.7-10.5-2.7-24.5-2.7-24.5s-80.2-69.8-111.5-99c-38.2-35.6-72.1-3.6-72.1-3.6s-262.6,256.4-323.4,322s-51,72.3-51,72.3
	c66.9,138,283.7,322.6,283.7,322.6c74,69.1,146.7,39.2,146.7,39.2c129.5-61.9,290.4-227.1,322.5-261.7
	c45.1-48.6-97.9-189.2-122.6-212.2c-23.4-24.4-37.4-31.1-50.2-19.5c-10.3,8.3-20.2,14.1-58.6,55.6c-19.3,20.8-0.3,54-0.3,54
	L1844,530.8L1844,530.8z"/>
</svg>
