<?xml version="1.0" encoding="utf-8"?>
<!-- Generator: Adobe Illustrator 28.0.0, SVG Export Plug-In . SVG Version: 6.00 Build 0)  -->
<svg version="1.1" id="Capa_2_00000149350670362317928120000011525623117133630391_"
	 xmlns="http://www.w3.org/2000/svg" xmlns:xlink="http://www.w3.org/1999/xlink" x="0px" y="0px" viewBox="0 0 1920 1350.3"
	 style="enable-background:new 0 0 1920 1350.3;" xml:space="preserve">
<style type="text/css">
	.st0{opacity:0.8;}
	.st1{clip-path:url(#SVGID_00000132791654261011938910000017484913671465209781_);}
	.st2{fill:#FFD741;}
	.st3{opacity:0.36;}
	.st4{opacity:0.5;fill:#E73E26;enable-background:new    ;}
	.st5{opacity:0.5;}
	.st6{fill:#E73E26;}
	.st7{fill:none;}
</style>
<g id="Capa_1-2" class="st0">
	<g>
		<g>
			<defs>
				<rect id="SVGID_1_" x="0" y="-5.8" width="1920" height="1361.8"/>
			</defs>
			<clipPath id="SVGID_00000077291961594270640620000010468337613155276675_">
				<use xlink:href="#SVGID_1_"  style="overflow:visible;"/>
			</clipPath>
			<g style="clip-path:url(#SVGID_00000077291961594270640620000010468337613155276675_);">
				<g>
					<rect x="0" y="-5.8" class="st2" width="1920" height="1361.8"/>
					<g class="st3">
						<path class="st4" d="M906.2,245.6c-23.5-32.7-69-39.6-109.5-38.3c-40.2,1.4-82.1,8-119.2-7.5
							c-60.3-25.3-83.1-96.7-109.5-156.7c-21.9-50-51.5-97.6-93.3-132.6c-41.7-35-96.8-56.3-150.8-49.5c-19,2.4-38.2,8.6-52,21.9
							C258.4-104,251.6-85.7,245.1-68C217.7,6.8,160,63.5,87.1,95.1C11.7,127.8-53.9,119.6-135,133c-94,15.5-171.9,100.7-179.1,196
							s77,258,160.2,304.5C9.5,724.8,44.7,517.2,134.2,594.8c31.5,27.3-74.4,37.9-44.4,143.3C101.2,778.3,209,945.4,337,902
							c46-15.6,256.9-260.1,304.7-268.3c43.6-7.5,20.3,141.7,138.6,134.6c44.1-2.7,131.4-84.9,152.3-123.9
							c14.6-27.2,8.7-61.8-7.8-87.8c-16.5-25.9-42.2-44.6-68.4-60.6c-34.2-20.8-74.3-43.3-81.7-82.7c-1.9-10.2-0.5-22.5,8.1-28.4
							c7.1-4.8,16.5-3.7,25.1-3.2c34.8,2,71.4-11.1,93.1-38.5C922.7,315.8,926.6,274,906.2,245.6L906.2,245.6z"/>
						<g class="st5">
							<path class="st6" d="M904.1,1192.3c-58.1,21-116.9,39.9-175.9,58.4c-6.4,2.1-13.2-1.1-16-7.1c-10.9-23.6-19-48-25.9-72.9
								c-1.6-8.7,2-9.8,9.1,0c31.9,44.4,135.7,12.2,173-0.1c9.2-3,13.8-11.1,12.1-20.6c-6-33.7-10.7-66.8-22.7-99
								c-3.2-8.4-11.3-15.2-20.9-12.3c-26.5,8.1-52.2,15.9-80,17.8c-8.8,0.6-18.3,7.3-17.5,17.3c1.5,20.1,4.6,37.9,13.1,56.3
								c4.1,8.8,14.8,6.3,23.7,6.7c12.7,0.6,22-2.2,34-1.8c17.3,0.5,19.7-24.3,4.1-29.4c-12.7-4.2-22.1-6.9-31.9-6.3
								c-2.7,0.2-5.1-1.7-5.7-4.3v-0.1c-0.7-3.1,1.4-6.2,4.6-6.7c14.7-2.5,29.1-6,43.5-10.1c2.9-0.8,6,0.8,6.9,3.8
								c5.5,18.8,9.2,37.8,12.7,57.1c0.5,2.6-0.9,5.2-3.4,6.2c-37.7,15-108.1,42.7-120.9,16.8c-17.2-35-29.2-79-33.7-119.2
								c-0.3-2.6,1.2-5,3.7-5.9c25.4-9,51.6-16.4,77.9-21.8c20.6-4.2,75.4-20.4,91.3,0.9c32.8,43.7,41.5,113.7,48.5,170.3
								C908.1,1189,906.6,1191.4,904.1,1192.3L904.1,1192.3z"/>
							<path class="st6" d="M1032.3,1119.1c9.2,28.6,17.5,57.6,25.6,86.4c0.9,3.2-0.7,6.4-3.7,7.7c-11.6,4.9-23.5,8.5-35.7,11.5
								c-4.2,0.7-4.7-1.1,0.2-4.4c22-14.8,8.1-65.9,2.7-84.3c-1.3-4.5-5.2-6.9-9.8-6.2c-16.4,2.4-32.5,4.1-48.3,9.5
								c-4.2,1.4-7.6,5.3-6.3,10c3.6,13,6.9,25.6,7.4,39.2c0.1,4.3,3.2,9,8.1,8.8c9.8-0.4,18.5-1.7,27.5-5.5
								c4.3-1.8,3.3-7.1,3.6-11.4c0.4-6.2-0.8-10.7-0.4-16.6c0.5-8.5-11.5-10-14.2-2.5c-2.2,6.1-3.6,10.6-3.5,15.4
								c0,1.3-0.9,2.4-2.2,2.7l0,0c-1.5,0.3-3-0.7-3.2-2.3c-1-7.2-2.4-14.2-4.2-21.3c-0.4-1.4,0.4-2.9,1.9-3.3
								c9.1-2.4,18.4-3.9,27.8-5.3c1.3-0.2,2.6,0.6,3,1.8c6.6,18.6,18.9,53.4,6.2,59.2c-17.2,7.9-38.8,13-58.3,14.6
								c-1.3,0.1-2.4-0.7-2.8-1.9c-3.9-12.5-7.1-25.4-9.3-38.3c-1.7-10.1-8.6-37.1,1.9-44.5c21.6-15.2,55.7-18.4,83.2-20.9
								C1030.7,1117.1,1031.9,1117.9,1032.3,1119.1L1032.3,1119.1z"/>
							<path class="st6" d="M923.5,1227.7c21.6,47.4,41.6,95.4,61.3,143.6c2.2,5.2,0.1,11.1-4.8,13.9c-18.9,10.8-38.7,19.4-59,26.9
								c-7.1,2-8.3-1-0.6-7.6c34.8-29.9,0.6-114.9-12.3-145.3c-3.1-7.5-10.2-10.8-18-8.7c-27.7,7.4-55,13.6-81,26
								c-6.8,3.2-11.9,10.5-8.8,18.4c8.6,21.6,16.9,42.7,20.4,65.9c1.1,7.4,7.4,14.8,15.7,13.5c16.7-2.7,31.3-6.6,46.1-15
								c7.1-4,4.2-12.8,3.9-20.3c-0.4-10.8-3.4-18.4-3.9-28.5c-0.8-14.6-21.6-14.9-24.8-1.4c-2.6,10.9-4.2,19-3,27.2
								c0.3,2.3-1.1,4.4-3.2,5.1h-0.1c-2.6,0.8-5.3-0.8-6-3.4c-3.1-12.2-7.1-24-11.5-35.8c-0.9-2.4,0.3-5.2,2.7-6.1
								c15.2-5.8,30.9-10.3,46.7-14.6c2.1-0.6,4.4,0.4,5.4,2.4c15.1,30.7,43.2,87.9,22.5,100.4c-28,16.9-63.9,30.1-97.1,36.7
								c-2.2,0.4-4.3-0.7-5.2-2.7c-9.2-20.7-17.3-42.2-23.6-63.9c-5-16.9-22.3-61.8-5.7-76.7c34.2-30.6,92-42.8,138.7-52.7
								C920.4,1224.6,922.6,1225.7,923.5,1227.7L923.5,1227.7z"/>
						</g>
						<path class="st4" d="M2198.7,595.4c35.6,45.6-43,120.2-43,120.2l-219.2,211.7c-78.3,84.4-197.9-4.3-197.9-4.3
							s-294.1-227.7-298.1-341.2c-5.3-147.7,331.3-450.3,331.3-450.3c127.1-124.3,363.1-90.9,363.1-90.9s45.5,15.9,55.7,4.9
							C2207.4,27.4,2186,3,2186,3s-138.9-120.8-193.1-171.4c-66.1-61.7-124.9-6.2-124.9-6.2s-454.7,444.1-560.1,557.7
							c-105.4,113.6-88.3,125.2-88.3,125.2c115.8,239,491.3,558.7,491.3,558.7c128.1,119.7,254,67.9,254,67.9
							c224.2-107.2,502.9-393.3,558.5-453.2c78.1-84.2-169.6-327.7-212.3-367.5c-40.5-42.2-64.8-53.9-86.9-33.7
							c-17.8,14.4-34.9,24.5-101.5,96.3c-33.5,36.1-0.6,93.6-0.6,93.6L2198.7,595.4L2198.7,595.4z"/>
					</g>
					<rect x="0" y="-5.8" class="st7" width="1920" height="1361.8"/>
				</g>
			</g>
		</g>
	</g>
</g>
</svg>
