<?xml version="1.0" encoding="utf-8"?>
<!-- Generator: Adobe Illustrator 28.0.0, SVG Export Plug-In . SVG Version: 6.00 Build 0)  -->
<svg version="1.1" id="Capa_2_00000148654704281506211700000017660878983485509775_"
	 xmlns="http://www.w3.org/2000/svg" xmlns:xlink="http://www.w3.org/1999/xlink" x="0px" y="0px" viewBox="0 0 374.6 221.6"
	 style="enable-background:new 0 0 374.6 221.6;" xml:space="preserve">
<style type="text/css">
	.st0{fill:#FFFFFF;}
</style>
<path class="st0" d="M213.1,4.8h70.4l-26.8,107.1c-2.3,9.6-3.5,14.5-3.7,14.6c-4.4,17.6-6.6,32.1-6.6,43.7c0,6.9,2.4,12.8,7.1,17.7
	c4.7,4.9,9.9,7.3,15.5,7.3c20,0,39-15.8,57-47.4c18-31.6,27.1-56.9,27.1-75.9c0-8.7-3.1-13-9.2-13c-10,0-17.2-0.6-21.7-1.9
	c-4.5-1.2-8.5-4.7-12.2-10.4c-3.7-5.7-5.5-11.5-5.5-17.6c0-7.1,2.9-13.7,8.8-19.8c5.9-6.1,13.5-9.2,23-9.2
	c12.3,0,21.7,4.6,28.4,13.9c6.7,9.2,10,19.9,10,32c0,36.6-12.4,75-37.3,115.3c-24.9,40.3-55.9,60.5-93,60.5
	c-17.7,0-31.6-6.3-41.8-18.8c-10.2-12.5-15.2-26.7-15.2-42.5c0-11,1-21.2,3.1-30.6l-1-1.1c-18.6,35.7-36.2,60.1-52.8,73.2
	c-16.6,13.1-35.3,19.7-56,19.7c-15.6,0-27.5-4.2-35.9-12.7c-8.3-8.4-12.5-17.5-12.5-27.3c0-10.5,2.4-25,7.1-43.7l22.1-87.9
	c1.7-7.3,2.6-12.5,2.6-15.7c0-5.1-2.4-7.7-7.1-7.7c-10.9,0-25,18.4-42.6,55.1L0,75.4C21.9,25.1,51.1,0,87.7,0
	c14.4,0,25.7,3.6,34.2,10.8c8.4,7.2,12.6,15.4,12.6,24.6c0,7.3-2.3,20.1-6.8,38.4l-23.1,89.8c-2.6,11.2-3.9,17.8-3.9,19.7
	c0,6.6,3.9,9.9,11.8,9.9c15.1,0,32.8-17.9,53.1-53.7C185.8,103.6,201.7,58.8,213.1,4.8z"/>
</svg>
