<?xml version="1.0" encoding="UTF-8"?>
<svg id="Capa_2" data-name="Capa 2" xmlns="http://www.w3.org/2000/svg" viewBox="0 0 356.6 221.65">
  <defs>
    <style>
      .cls-1 {
        fill: #fff;
        stroke-width: 0px;
      }
    </style>
  </defs>
  <g id="Capa_2-2" data-name="Capa 2">
    <path class="cls-1" d="m184.7,125.07c-2.97,6.96-5.7,14.02-8.94,20.85-10.53,22.13-23.65,42.39-42.68,58.33-12.67,10.62-27.39,17.07-43.7,17.39-12.82.25-23.13-6.41-29.49-18.2-6.38-11.82-8.78-24.67-10.07-37.82-.47-4.8-.81-9.63-.83-14.45,0-2.94-1.31-4.13-3.93-4.73-26.93-6.21-40.48-25.47-43.08-51.51-.3-2.97-2.09-5.37-1.98-8.56C1.28,50.39,22.29,17.1,57.63,3.37,65.94.14,74.79-.77,83.68.64c14.35,2.28,23.78,12.48,26.07,27.06,2.28,14.51.5,28.93-.42,43.35-.89,13.94-2.52,27.83-3.77,41.74-.87,9.78-1.72,19.56-2.43,29.35-.67,9.15-.85,18.29,2.18,27.15,4.18,12.23,17.02,15.9,27.27,7.73,7.51-5.99,13.22-13.57,18.22-21.65,17.02-27.46,27.04-57.71,34.9-88.78,4.29-16.94,7.72-34.07,10.25-51.37.83-5.68,3.22-7.67,9.13-7.71,11.99-.08,23.99-.07,35.98.02,5.61.04,6.84,1.27,6.69,6.83-.41,15.35-3.95,30.33-5.7,45.52-2.65,22.96-6.92,45.82-5.2,69.08,1.07,14.48,2.84,28.9,11.6,41.25,7.15,10.09,16.57,11.93,26.66,4.79,11.22-7.94,18.9-19.01,25.84-30.64,9.36-15.7,16.14-32.39,20.15-50.27,3.96-17.64,1.43-34.03-8.19-49.35-2.39-3.81-4.4-7.82-5.73-12.16-3.04-9.87.02-19.78,8.22-26.28,8.64-6.85,21.08-8.18,29.49-3.09,2.92,1.77,5.25,4.27,6.51,7.39,4.6,11.34,7.14,22.74,3.39,35.15-1.94,6.42-1.87,13.47-3.2,20.18-4.64,23.46-12.2,45.95-22.41,67.53-10.2,21.54-22.6,41.67-39.47,58.76-16.71,16.92-36.39,28-60.48,29.37-9.28.53-16.29-4.9-21.58-12.28-9.65-13.44-13.77-29.02-17-44.88-2.62-12.89-4.19-25.94-5.97-39.35h.02ZM19.74,86.14c-.5,17.03,2.36,27.61,10.04,36.45,3.49,4.02,8.08,7.01,13.66,5.34,5.52-1.66,5.59-7,6-11.6,2.04-22.87,3.95-45.75,5.88-68.63.36-4.27-1.69-6.2-5.96-5.6-6.23.87-11.16,4.27-15.39,8.64-11.03,11.39-13.75,25.78-14.24,35.41h.01Z"/>
  </g>
</svg>