<?xml version="1.0" encoding="utf-8"?>
<!-- Generator: Adobe Illustrator 28.0.0, SVG Export Plug-In . SVG Version: 6.00 Build 0)  -->
<svg version="1.1" id="Capa_2_00000148654704281506211700000017660878983485509775_"
	 xmlns="http://www.w3.org/2000/svg" xmlns:xlink="http://www.w3.org/1999/xlink" x="0px" y="0px" viewBox="0 0 356.6 221.6"
	 style="enable-background:new 0 0 356.6 221.6;" xml:space="preserve">
<style type="text/css">
	.st0{fill:#FFFFFF;}
</style>
<g id="Capa_2-2">
	<path class="st0" d="M186,124.9c-3.3,6.5-5.6,14.4-8.8,20.9c-11.1,21.9-23.2,41.8-42.8,58.1c-12.1,11.1-27.4,16.3-42.8,17.6
		c-13.1,0-23.2-6.5-29.7-17.6c-6.5-12.1-8.8-24.2-9.8-37.2c0-4.2-1-9.8-1-14.4c0-3.3-1-4.2-4.2-4.2C20.3,141.5,6.3,122.9,4,97.4
		c0-3.3-2.3-5.6-2.3-8.8c1-35.3,21.9-69.3,57.2-82.3C66.7,3,75.2,2.1,85.3,4c14.4,2.3,23.2,12.1,26.5,26.5c2.3,14.4,0,28.4,0,42.8
		c-1,14.4-2.3,27.4-3.3,41.8c-1,9.8-2.3,19.6-2.3,28.4c-1,8.8-1,18.6,2.3,26.5c4.2,12.1,16.3,15.4,27.4,7.8
		c7.8-5.6,13.1-13.1,17.6-21.9c16.3-27.4,26.5-57.2,34-87.9c4.2-16.3,7.8-34,9.8-50.6c1-5.6,3.3-7.8,8.8-7.8c12.1,0,24.2,0,35.3,0
		c5.6,0,6.5,1,6.5,6.5c0,15.4-4.2,29.7-5.6,45.1c-2.3,23.2-6.5,45.1-5.6,67.9c1,14.4,3.3,28.4,11.1,40.5c6.5,9.8,16.3,12.1,26.5,4.2
		c11.1-7.8,18.6-18.6,25.2-30.7c8.8-15.4,16.3-31.7,19.6-49.3c4.2-17.6,1-34-7.8-49.3c-2.3-3.3-4.2-7.8-5.6-12.1
		c-3.3-9.8,0-19.6,7.8-26.5c8.8-6.5,20.9-7.8,29.7-3.3c3.3,2.3,5.6,4.2,6.5,7.8c4.2,11.1,6.5,23.2,3.3,35.3
		c-2.3,6.5-2.3,13.1-3.3,19.6c-4.2,23.2-12.1,45.1-21.9,67c-9.8,20.9-21.9,41.8-39.5,58.1c-16.3,16.3-36.3,27.4-60.4,29.7
		c-8.8,0-16.3-4.2-20.9-12.1c-9.8-13.1-13.1-28.4-16.3-43.8C189.2,151.3,187.3,137.9,186,124.9L186,124.9L186,124.9z M22.6,86.3
		c0,16.3,2.3,27.4,9.8,36.3c3.3,4.2,7.8,6.5,13.1,5.6c5.6-1,5.6-6.5,5.6-11.1c2.3-23.2,4.2-45.1,5.6-67.9c0-4.2-2.3-6.5-5.6-5.6
		c-6.5,1-11.1,4.2-15.4,8.8C25.9,62.2,22.6,76.5,22.6,86.3L22.6,86.3L22.6,86.3z"/>
</g>
</svg>
