<?xml version="1.0" encoding="UTF-8"?>
<svg id="Capa_2" data-name="Capa 2" xmlns="http://www.w3.org/2000/svg" viewBox="0 0 366.28 362.68">
  <defs>
    <style>
      .cls-1 {
        fill: #fff;
        fill-rule: evenodd;
        stroke-width: 0px;
      }
    </style>
  </defs>
  <g id="Capa_1-2" data-name="Capa 1">
    <path class="cls-1" d="m257.81,239.41l-43.81,30.86c-20.52-11.69-43.2-28-65.95-50.75s-41.19-48.07-54.12-70.47l27.84-23.63c11.95-10.14,15.22-27.24,7.86-41.07L94.15,17.68c-4.78-8.98-13.39-15.28-23.39-17.12-10-1.84-20.29.98-27.96,7.67l-10.52,9.18C7,39.47-7.96,75.74,4.44,112.47c12.85,38.07,40.28,98,96.47,154.19,60.45,60.45,121.86,84.26,157.77,93.51,28.93,7.45,56.31-2.54,75.61-18.26l19.72-16.07c8.43-6.87,12.98-17.43,12.19-28.28-.8-10.85-6.84-20.63-16.18-26.2l-55.94-33.33c-11.3-6.73-25.5-6.19-36.26,1.38Z"/>
  </g>
</svg>