<?xml version="1.0" encoding="utf-8"?>
<!-- Generator: Adobe Illustrator 28.0.0, SVG Export Plug-In . SVG Version: 6.00 Build 0)  -->
<svg version="1.1" id="Capa_2_00000134226912039850311660000014504472180208856973_"
	 xmlns="http://www.w3.org/2000/svg" xmlns:xlink="http://www.w3.org/1999/xlink" x="0px" y="0px" viewBox="0 0 1058.4 677.4"
	 style="enable-background:new 0 0 1058.4 677.4;" xml:space="preserve">
<style type="text/css">
	.st0{fill:#F7A237;}
	.st1{fill-rule:evenodd;clip-rule:evenodd;fill:#FFFFFF;}
	.st2{fill:#FFFFFF;}
</style>
<path class="st0" d="M1058.4,677.4H78.3C35.1,677.4,0,642.3,0,599.1V78.3C0,35.1,35.1,0,78.3,0h980.1V677.4z"/>
<g id="Capa_1-2">
	<path class="st1" d="M214.7,572.4c-27.1,0-49.7-22.6-49.7-49.7V155.8c0-27.1,22.6-49.7,49.7-49.7h182.9
		c167.1,0,167.1,216.8,66.6,216.8c100.5,0,133.2,249.5-66.6,249.5H214.7L214.7,572.4z M281.3,306c-9,0-16.9-7.9-16.9-16.9V188.5
		c0-9,7.9-16.9,16.9-16.9h83.5c0,0,66.6,0,66.6,66.6s-66.6,66.6-66.6,66.6h-83.5V306L281.3,306z M281.3,372.6
		c-9,0-16.9,7.9-16.9,16.9V490c0,9,7.9,16.9,16.9,16.9h116.3c0,0,49.7,0,49.7-66.6s-49.7-66.6-49.7-66.6H281.3V372.6z"/>
	<path class="st1" d="M848.1,405.3c27.1,0,50.8-22.6,45.2-49.7C851.5,155.8,562.5,175,564.7,405.3C567,581.4,812,637.9,885.4,478.7
		c11.3-24.8-14.7-39.5-35-39.5c-19.2,0-33.9,16.9-45.2,31.6c-35,41.8-140,38.4-154.7-48.5c-1.1-9,5.6-16.9,15.8-16.9h181.8V405.3
		L848.1,405.3z M659.5,338.7c-4.5,0-7.9-5.6-5.6-9c35-56.5,119.7-55.3,155.8,0c2.3,4.5,0,9-5.6,9H659.5z"/>
	<path class="st2" d="M665.2,138.9c-18.1,0-33.9,14.7-33.9,33.9s14.7,33.9,33.9,33.9h133.2c18.1,0,33.9-14.7,33.9-33.9
		s-14.7-33.9-33.9-33.9H665.2z"/>
</g>
</svg>
