<?xml version="1.0" encoding="utf-8"?>
<!-- Generator: Adobe Illustrator 28.0.0, SVG Export Plug-In . SVG Version: 6.00 Build 0)  -->
<svg version="1.1" id="Capa_1" xmlns="http://www.w3.org/2000/svg" xmlns:xlink="http://www.w3.org/1999/xlink" x="0px" y="0px"
	 viewBox="0 0 45 34" style="enable-background:new 0 0 45 34;" xml:space="preserve">
<style type="text/css">
	.st0{fill:#FFFFFF;}
</style>
<g>
	<path class="st0" d="M0.6,31c0,1.7,1.3,3,3,3h7V16.9l-10-7.7V31z"/>
	<path class="st0" d="M7.3,0.8C5.8-0.3,3.7-0.3,2.3,1c-1,1-1.7,2.4-1.7,3.9v1.5l10,7.9V3.4h0C9.6,2.6,8.3,1.6,7.3,0.8z"/>
	<path class="st0" d="M12.9,5.2v11l9.7,7.7l9.5-7.5V5.2l-9.6,7.5L12.9,5.2z"/>
	<path class="st0" d="M42.7,1c-1.4-1.3-3.5-1.3-5-0.2C37,1.4,36.2,2,35.4,2.6v0l-1,0.8v11.1l10-7.9V4.9C44.4,3.4,43.8,2,42.7,1z"/>
	<path class="st0" d="M34.5,34h7c1.7,0,3-1.3,3-3V9.3l-10,7.7V34z"/>
</g>
</svg>
