<?xml version="1.0" encoding="utf-8"?>
<!-- Generator: Adobe Illustrator 28.0.0, SVG Export Plug-In . SVG Version: 6.00 Build 0)  -->
<svg version="1.1" id="Capa_1" xmlns="http://www.w3.org/2000/svg" xmlns:xlink="http://www.w3.org/1999/xlink" x="0px" y="0px"
	 viewBox="0 0 45 34" style="enable-background:new 0 0 45 34;" xml:space="preserve">
<style type="text/css">
	.st0{fill:#FFFFFF;}
</style>
<g>
	<path class="st0" d="M1.4,30.4c0,1.6,1.3,3,2.9,3h6.7V17L1.4,9.7C1.4,9.7,1.4,30.4,1.4,30.4z"/>
	<path class="st0" d="M7.8,1.5C6.3,0.4,4.3,0.4,3.1,1.6c-1,1-1.6,2.3-1.6,3.8v1.4l9.6,7.5V3.9l0,0C10.1,3.2,8.7,2.3,7.8,1.5z"/>
	<path class="st0" d="M13.2,5.7v10.5l9.3,7.3l9.1-7.2V5.7L22.3,13L13.2,5.7z"/>
	<path class="st0" d="M41.9,1.6c-1.3-1.3-3.5-1.3-4.7-0.2c-0.7,0.5-1.4,1.2-2.1,1.6l0,0l-1.2,0.8v10.6l9.6-7.5V5.4
		C43.6,3.9,42.9,2.7,41.9,1.6z"/>
	<path class="st0" d="M33.9,33.4h6.7c1.6,0,3-1.3,3-3V9.7L34,17L33.9,33.4L33.9,33.4z"/>
</g>
</svg>
