<?xml version="1.0" encoding="utf-8"?>
<!-- Generator: Adobe Illustrator 28.0.0, SVG Export Plug-In . SVG Version: 6.00 Build 0)  -->
<svg version="1.1" id="Capa_1" xmlns="http://www.w3.org/2000/svg" xmlns:xlink="http://www.w3.org/1999/xlink" x="0px" y="0px"
	 viewBox="0 0 45 34" style="enable-background:new 0 0 45 34;" xml:space="preserve">
<style type="text/css">
	.st0{fill:#FFFFFF;}
</style>
<g>
	<path class="st0" d="M9.6,25.2c0,1,0.8,1.8,1.8,1.8h4.1V17l-5.9-4.5V25.2z"/>
	<path class="st0" d="M13.5,7.5c-0.9-0.7-2.1-0.7-2.9,0.1c-0.6,0.6-1,1.4-1,2.3v0.9l5.9,4.6V9h0C14.9,8.6,14.1,8,13.5,7.5z"/>
	<path class="st0" d="M16.8,10.1v6.4l5.7,4.5l5.6-4.4v-6.5l-5.7,4.4L16.8,10.1z"/>
	<path class="st0" d="M34.4,7.6c-0.8-0.8-2.1-0.8-2.9-0.1c-0.4,0.3-0.9,0.7-1.3,1v0L29.5,9v6.5l5.9-4.6v-1C35.4,9,35,8.2,34.4,7.6z"
		/>
	<path class="st0" d="M29.5,27h4.1c1,0,1.8-0.8,1.8-1.8V12.5L29.5,17V27z"/>
</g>
</svg>
