<?xml version="1.0" encoding="utf-8"?>
<!-- Generator: Adobe Illustrator 28.0.0, SVG Export Plug-In . SVG Version: 6.00 Build 0)  -->
<svg version="1.1" id="Capa_2_00000042014596961305299450000009437832426209869499_"
	 xmlns="http://www.w3.org/2000/svg" xmlns:xlink="http://www.w3.org/1999/xlink" x="0px" y="0px" viewBox="0 0 46.3 66.6"
	 style="enable-background:new 0 0 46.3 66.6;" xml:space="preserve">
<style type="text/css">
	.st0{fill:#FFFFFF;}
</style>
<g id="Capa_2-2">
	<path class="st0" d="M46.3,33.3c0,18.4-14.9,33.3-33.3,33.3v-6.8c14.6,0,26.4-11.8,26.4-26.4S27.6,6.8,13,6.8V0
		C31.4,0,46.3,14.9,46.3,33.3z"/>
	<g>
		<path class="st0" d="M0,24.2l2.2,24.6l9.9,2.7l9.9-2.7l2.2-24.6C24.1,24.2,0,24.2,0,24.2z M5.9,44.7l-0.4-4.8h3l0.2,2.5l3.4,0.9
			l0,0l3.4-0.9l0.4-3.9H5.3l-0.8-9.1h15.1l-0.3,3H7.8l0.3,3.1h11l-0.8,9.3l-6.2,1.7l0,0L5.9,44.7L5.9,44.7z"/>
		<g>
			<path class="st0" d="M0,14.9h1.4v2.8h2.5v-2.8h1.4v7.4H3.9v-3.2H1.4v3.2H0C0,22.4,0,14.9,0,14.9z"/>
			<path class="st0" d="M6.3,14.9h4.1v1.4H9v6H7.6v-6H6.3C6.3,16.3,6.3,14.9,6.3,14.9z"/>
			<path class="st0" d="M12.1,14.9h1.4l1.7,5.2l1.7-5.2h1.4l1.2,7.4h-1.4l-0.8-4.7l-1.6,4.7h-1.2L13,17.7l-0.8,4.7h-1.4L12.1,14.9
				L12.1,14.9z"/>
			<path class="st0" d="M20.7,14.9h1.4V21h2.1v1.4h-3.5C20.7,22.4,20.7,15,20.7,14.9z"/>
		</g>
	</g>
</g>
</svg>
