<?xml version="1.0" encoding="UTF-8"?>
<svg id="Capa_2" data-name="Capa 2" xmlns="http://www.w3.org/2000/svg" xmlns:xlink="http://www.w3.org/1999/xlink" viewBox="0 0 46.28 66.55">
  <defs>
    <style>
      .cls-1 {
        fill: url(#Degradado_sin_nombre_23-5);
      }

      .cls-1, .cls-2, .cls-3, .cls-4, .cls-5, .cls-6 {
        stroke-width: 0px;
      }

      .cls-2 {
        fill: url(#Degradado_sin_nombre_23-2);
      }

      .cls-3 {
        fill: url(#Degradado_sin_nombre_23-4);
      }

      .cls-4 {
        fill: url(#Degradado_sin_nombre_23-6);
      }

      .cls-5 {
        fill: url(#Degradado_sin_nombre_23);
      }

      .cls-6 {
        fill: url(#Degradado_sin_nombre_23-3);
      }
    </style>
    <linearGradient id="Degradado_sin_nombre_23" data-name="Degradado sin nombre 23" x1="50.8" y1="-1.72" x2="-5.84" y2="63.98" gradientUnits="userSpaceOnUse">
      <stop offset="0" stop-color="#35fa00"/>
      <stop offset="1" stop-color="#000"/>
    </linearGradient>
    <linearGradient id="Degradado_sin_nombre_23-2" data-name="Degradado sin nombre 23" x1="48.45" y1="-6.94" x2="-15.84" y2="67.63" xlink:href="#Degradado_sin_nombre_23"/>
    <linearGradient id="Degradado_sin_nombre_23-3" data-name="Degradado sin nombre 23" x1="34.84" y1="-18.67" x2="-29.44" y2="55.9" xlink:href="#Degradado_sin_nombre_23"/>
    <linearGradient id="Degradado_sin_nombre_23-4" data-name="Degradado sin nombre 23" x1="37.71" y1="-16.19" x2="-26.57" y2="58.38" xlink:href="#Degradado_sin_nombre_23"/>
    <linearGradient id="Degradado_sin_nombre_23-5" data-name="Degradado sin nombre 23" x1="42.38" y1="-12.17" x2="-21.9" y2="62.4" xlink:href="#Degradado_sin_nombre_23"/>
    <linearGradient id="Degradado_sin_nombre_23-6" data-name="Degradado sin nombre 23" x1="46.16" y1="-8.91" x2="-18.13" y2="65.66" xlink:href="#Degradado_sin_nombre_23"/>
  </defs>
  <g id="Capa_2-2" data-name="Capa 2">
    <path class="cls-5" d="m46.28,33.27c0,18.38-14.9,33.28-33.28,33.28v-6.85c14.6,0,26.43-11.83,26.43-26.43S27.6,6.84,13,6.84V0c18.38,0,33.28,14.89,33.28,33.27Z"/>
    <g>
      <path class="cls-2" d="m0,24.22l2.2,24.64,9.86,2.74,9.87-2.74,2.2-24.64H0Zm5.87,20.43l-.43-4.85h3.03l.23,2.52,3.37.91h0s3.37-.91,3.37-.91l.35-3.92H5.31l-.81-9.14h15.14l-.27,3.02H7.8l.28,3.09h11.02l-.83,9.28-6.19,1.72h0s-6.19-1.72-6.19-1.72Z"/>
      <g>
        <path class="cls-6" d="m0,14.95h1.43v2.8h2.48v-2.8h1.43v7.42h-1.43v-3.25H1.43v3.25H0v-7.42Z"/>
        <path class="cls-3" d="m6.3,14.95h4.1v1.39h-1.35v6.03h-1.43v-6.03h-1.32v-1.39Z"/>
        <path class="cls-1" d="m12.09,14.95h1.38l1.72,5.17,1.74-5.17h1.37l1.24,7.42h-1.37l-.8-4.68-1.58,4.68h-1.24l-1.56-4.68-.81,4.68h-1.38l1.28-7.42Z"/>
        <path class="cls-4" d="m20.66,14.95h1.41v6.07h2.06v1.35h-3.47v-7.42Z"/>
      </g>
    </g>
  </g>
</svg>