<?xml version="1.0" encoding="utf-8"?>
<!-- Generator: Adobe Illustrator 28.0.0, SVG Export Plug-In . SVG Version: 6.00 Build 0)  -->
<svg version="1.1" id="Capa_2_00000160872640440370994900000006976331935559068034_"
	 xmlns="http://www.w3.org/2000/svg" xmlns:xlink="http://www.w3.org/1999/xlink" x="0px" y="0px" viewBox="0 0 52.3 66.6"
	 style="enable-background:new 0 0 52.3 66.6;" xml:space="preserve">
<style type="text/css">
	.st0{fill:#FFFFFF;}
</style>
<g id="Capa_2-2">
	<g>
		<path class="st0" d="M19,0v6.8c14.6,0,26.4,11.8,26.4,26.4S33.6,59.7,19,59.7c-5.6,0-10.7-1.7-15-4.7L0,60.6c5.4,3.8,12,6,19,6
			c18.4,0,33.3-14.9,33.3-33.3S37.4,0,19,0z"/>
		<path class="st0" d="M16.8,40.8c1,1.7,2.4,2.8,4.4,3.3c0.7,0.2,1.4,0.2,2.1,0.2c0.7,0,1.4,0,2.2,0c1-0.1,1.9-0.2,2.8-0.5
			c0.4-0.1,0.9-0.3,1.2-0.6c0.2-0.2,0.4-0.4,0.4-0.7c0-0.2,0-0.3,0-0.5V22.4c0-0.1-0.1-0.2-0.2-0.2h-4c-0.1,0-0.2,0.1-0.2,0.2v5.9
			c0,0.1,0,0.2-0.2,0.2h-2.5c-0.4,0-0.8,0-1.2,0.1c-1.7,0.3-3.1,1.2-4.2,2.6C16.5,32.2,16,33.5,16,35c0,0.8,0,1.7,0,2.5
			C16,38.7,16.2,39.8,16.8,40.8L16.8,40.8L16.8,40.8z M20.1,35.5c0.1-0.9,0.4-1.7,1.1-2.3c0.7-0.7,1.6-1.1,2.6-1.1c0.5,0,1,0,1.5,0
			c0.1,0,0.1,0,0.1,0.2v8.4c0,0.1-0.1,0.2-0.2,0.2c-0.6,0-1.1,0-1.7,0c-1.4-0.1-2.8-1.1-3.2-2.5c-0.1-0.4-0.2-0.8-0.2-1.3
			C20.1,36.5,20.1,36,20.1,35.5L20.1,35.5L20.1,35.5z"/>
		<path class="st0" d="M8.4,44.3h4c0.1,0,0.2-0.1,0.2-0.2v-20c0-0.1,0-0.2-0.2-0.2H8.4c-0.1,0-0.2,0-0.2,0.2v20
			C8.2,44.3,8.3,44.3,8.4,44.3C8.4,44.3,8.4,44.3,8.4,44.3z"/>
	</g>
</g>
</svg>
