<?xml version="1.0" encoding="UTF-8"?>
<svg id="Capa_2" data-name="Capa 2" xmlns="http://www.w3.org/2000/svg" viewBox="0 0 328.36 494.1">
  <defs>
    <style>
      .cls-1 {
        fill: #fff;
        stroke-width: 0px;
      }
    </style>
  </defs>
  <g id="Layer_1" data-name="Layer 1">
    <g>
      <path class="cls-1" d="m164.2,0C73.68,0,0,73.62,0,164.14c0,37.08,12.2,72.04,35.14,101.22,4.56,5.82,9.52,11.6,14.78,17.66,15.94,18.52,32.4,37.62,38.62,60.4,1.16,4.32,1.7,12.06,1.58,23.08v12.82c0,10.04,8.14,18.24,18.24,18.24h110.76c10.08,0,18.22-8.2,18.22-18.28v-12.92c-.08-10.16.46-17.42,1.56-21.46,6.28-22.62,24.5-44.04,40.82-63.24,4.84-5.7,9.48-11.1,13.5-16.26,23-29.16,35.14-64.16,35.14-101.26C328.36,73.62,254.7,0,164.2,0Z"/>
      <path class="cls-1" d="m219.12,409.36h-110.76c-10.1,0-18.24,8.14-18.24,18.22s8.14,18.28,18.24,18.28h110.76c10.08,0,18.22-8.18,18.22-18.28s-8.14-18.22-18.22-18.22Z"/>
      <path class="cls-1" d="m191.44,457.58h-55.38c-10.1,0-18.28,8.2-18.28,18.28s8.18,18.24,18.28,18.24h55.38c10.04,0,18.24-8.18,18.24-18.24s-8.2-18.28-18.24-18.28Z"/>
    </g>
  </g>
</svg>