<?xml version="1.0" encoding="utf-8"?>
<!-- Generator: Adobe Illustrator 28.0.0, SVG Export Plug-In . SVG Version: 6.00 Build 0)  -->
<svg version="1.1" id="Capa_2_00000039130919576990245300000013488465333899784099_"
	 xmlns="http://www.w3.org/2000/svg" xmlns:xlink="http://www.w3.org/1999/xlink" x="0px" y="0px" viewBox="0 0 52.3 66.6"
	 style="enable-background:new 0 0 52.3 66.6;" xml:space="preserve">
<style type="text/css">
	.st0{fill:#FFFFFF;}
</style>
<g id="Capa_2-2">
	<g>
		<g>
			<path class="st0" d="M15.6,22.7c-1.1-0.4-2.3-0.6-3.5-0.6c-1.7,0-3.4,0-5.2,0.1c-0.3,0-0.4,0.1-0.4,0.4v21.2c0,0.4,0,0.4,0.4,0.4
				h2.7c0.2,0,0.3-0.1,0.3-0.3v-3.7l0,0v-3.5c0-0.3,0.2-0.5,0.5-0.5c0.1,0,0.2,0,0.3,0c1.6,0.1,3.2-0.1,4.7-0.7
				c1.6-0.7,2.9-1.7,3.6-3.4c0.6-1.4,0.7-2.8,0.5-4.3C19.4,25.3,18,23.6,15.6,22.7L15.6,22.7L15.6,22.7z M15.8,31.1
				c-0.4,0.9-1.2,1.5-2.2,1.7c-1.1,0.3-2.3,0.2-3.4,0.2c-0.2,0-0.2-0.1-0.2-0.3v-7.1c0-0.2,0.1-0.3,0.3-0.3c0.9,0,1.9-0.1,2.8,0.1
				c0.9,0.2,1.7,0.5,2.3,1.2c0.5,0.5,0.7,1.2,0.7,1.9C16.3,29.4,16.2,30.3,15.8,31.1C15.8,31.1,15.8,31.1,15.8,31.1z"/>
			<path class="st0" d="M29.3,35.5c-0.8-0.5-1.6-0.9-2.4-1.3c-0.6-0.3-1.2-0.7-1.7-1.2c-0.4-0.5-0.4-1.1-0.1-1.6
				c0.3-0.4,0.8-0.6,1.3-0.7c1.4-0.1,2.6,0.1,3.9,0.7c0.4,0.2,0.5,0.2,0.5-0.3v-2.2c0-0.5-0.1-0.6-0.6-0.8c-1.3-0.4-2.7-0.5-4.1-0.4
				c-0.9,0.1-1.8,0.4-2.6,0.9c-1,0.7-1.7,1.6-1.9,2.8c-0.2,0.9-0.1,1.8,0.2,2.7c0.4,1,1.1,1.8,2,2.4c0.7,0.5,1.5,0.8,2.2,1.2
				c0.6,0.3,1.2,0.7,1.7,1.2c0.6,0.7,0.4,1.8-0.4,2.2c-0.3,0.2-0.7,0.2-1,0.3c-1.6,0.1-3.1-0.3-4.4-1.1c-0.2-0.1-0.3-0.1-0.3,0.2
				c0,0.5,0,0.9,0,1.4h0c0,0.4,0,0.9,0,1.3c0,0.3,0.1,0.5,0.4,0.6c2.1,0.8,4.2,1,6.4,0.3c1.6-0.5,2.7-1.6,3.1-3.3
				C31.8,38.5,31.2,36.8,29.3,35.5L29.3,35.5L29.3,35.5z"/>
		</g>
		<path class="st0" d="M19,0v6.8c14.6,0,26.4,11.8,26.4,26.4S33.6,59.7,19,59.7c-5.6,0-10.7-1.7-15-4.7L0,60.6c5.4,3.8,12,6,19,6
			c18.4,0,33.3-14.9,33.3-33.3S37.4,0,19,0z"/>
	</g>
</g>
</svg>
