<?xml version="1.0" encoding="UTF-8"?>
<svg id="Capa_2" data-name="Capa 2" xmlns="http://www.w3.org/2000/svg" xmlns:xlink="http://www.w3.org/1999/xlink" viewBox="0 0 52.32 66.55">
  <defs>
    <style>
      .cls-1 {
        fill: url(#Degradado_sin_nombre_7-3);
      }

      .cls-1, .cls-2, .cls-3 {
        stroke-width: 0px;
      }

      .cls-2 {
        fill: url(#Degradado_sin_nombre_7-2);
      }

      .cls-3 {
        fill: url(#Degradado_sin_nombre_7);
      }
    </style>
    <linearGradient id="Degradado_sin_nombre_7" data-name="Degradado sin nombre 7" x1="34.92" y1="58.3" x2="-5.03" y2="19.83" gradientTransform="translate(0 65.89) scale(1 -1)" gradientUnits="userSpaceOnUse">
      <stop offset="0" stop-color="#46a0d8"/>
      <stop offset=".18" stop-color="#3e8cbf"/>
      <stop offset=".57" stop-color="#2b597f"/>
      <stop offset="1" stop-color="#151d33"/>
    </linearGradient>
    <linearGradient id="Degradado_sin_nombre_7-2" data-name="Degradado sin nombre 7" x1="44.62" y1="47.34" x2="4.68" y2="8.87" xlink:href="#Degradado_sin_nombre_7"/>
    <linearGradient id="Degradado_sin_nombre_7-3" data-name="Degradado sin nombre 7" x1="43.15" y1="49.37" x2="3.59" y2="11.27" xlink:href="#Degradado_sin_nombre_7"/>
  </defs>
  <g id="Capa_2-2" data-name="Capa 2">
    <g>
      <g>
        <path class="cls-3" d="m15.62,22.71c-1.13-.42-2.3-.58-3.5-.59-1.72,0-3.45.01-5.17.09-.27.01-.37.11-.36.37v21.18c0,.42,0,.43.42.43h2.72c.25,0,.33-.1.33-.33v-3.68h0v-3.46c0-.34.17-.51.5-.5.1,0,.21,0,.31,0,1.61.06,3.2-.08,4.72-.68,1.64-.65,2.9-1.72,3.61-3.36.6-1.38.73-2.84.53-4.32-.34-2.54-1.72-4.26-4.12-5.17h0Zm.2,8.37c-.44.92-1.23,1.46-2.2,1.74-1.12.32-2.26.25-3.4.22-.19,0-.16-.14-.16-.26v-7.13c0-.25.06-.34.33-.34.93,0,1.85-.1,2.77.07.9.16,1.7.51,2.29,1.24.46.55.66,1.2.74,1.9.1.89.02,1.77-.37,2.58v-.02Z"/>
        <path class="cls-2" d="m29.29,35.51c-.75-.51-1.57-.91-2.36-1.34-.61-.34-1.24-.66-1.71-1.21-.41-.47-.42-1.1-.06-1.6.32-.43.78-.62,1.28-.67,1.35-.14,2.65.1,3.87.69.44.22.52.17.53-.33v-2.25c0-.52-.07-.6-.56-.75-1.33-.41-2.7-.49-4.08-.38-.94.07-1.84.35-2.64.87-1.02.66-1.68,1.58-1.94,2.77-.2.91-.14,1.81.16,2.68.35,1.04,1.11,1.75,1.98,2.36.68.48,1.45.81,2.17,1.22.61.34,1.22.69,1.69,1.24.63.74.43,1.76-.42,2.21-.32.17-.67.24-1.02.26-1.59.09-3.06-.29-4.41-1.12-.23-.14-.29-.11-.29.16,0,.47,0,.94,0,1.4h-.02c0,.44,0,.88,0,1.32,0,.33.13.52.43.64,2.09.81,4.22,1.01,6.37.32,1.62-.52,2.73-1.6,3.09-3.31.45-2.17-.19-3.92-2.05-5.19h0Z"/>
      </g>
      <path class="cls-1" d="m19.04,0v6.84c14.6,0,26.43,11.83,26.43,26.43s-11.83,26.43-26.43,26.43c-5.57,0-10.73-1.72-14.99-4.66l-4.05,5.52c5.4,3.77,11.96,5.99,19.04,5.99,18.38,0,33.28-14.9,33.28-33.28S37.42,0,19.04,0Z"/>
    </g>
  </g>
</svg>