<?xml version="1.0" encoding="UTF-8"?>
<svg id="Capa_2" data-name="Capa 2" xmlns="http://www.w3.org/2000/svg" viewBox="0 0 300 226.34">
  <defs>
    <style>
      .cls-1 {
        fill: #fff;
        stroke-width: 0px;
      }
    </style>
  </defs>
  <g id="Capa_1-2" data-name="Capa 1">
    <g>
      <path class="cls-1" d="m220.53,146.75c2.28-1.11,5.02-.17,6.13,2.11,1.11,2.27.17,5.02-2.11,6.13l-17.33,8.45c-1.14.56-2.39.6-3.5.21s-2.07-1.19-2.63-2.32c-1.11-2.27-.17-5.02,2.11-6.13l17.33-8.45Z"/>
      <path class="cls-1" d="m220.77,122.5c2.28-1.11,5.02-.17,6.13,2.11,1.11,2.27.17,5.02-2.11,6.13l-36.82,17.96c-1.14.56-2.39.6-3.5.21s-2.07-1.19-2.63-2.32c-1.11-2.27-.17-5.02,2.11-6.13l36.82-17.96Z"/>
      <path class="cls-1" d="m3.14,75.03c-10.32,29.96,5.61,62.61,35.57,72.93,29.57,10.18,61.75-5.21,72.5-34.42.13-.27.24-.55.34-.84.33-.97,1.35-3.93,7.19-5,4.74-.87,10.94-.18,17.01,1.92,10.17,3.5,19.37,10.94,17.17,17.33-.13.38-.22.76-.3,1.14-9.34,29.56,6.53,61.35,36.02,71.5,29.96,10.32,62.61-5.61,72.93-35.57,10.32-29.96-5.61-62.61-35.57-72.93-22.91-7.89-47.39-.42-62.26,16.93-5-6.02-12.68-11.14-22.45-14.5-9.76-3.36-18.95-4.06-26.59-2.4-1.04-22.82-15.73-43.76-38.63-51.65C46.11,29.14,13.46,45.07,3.14,75.03Zm166.05,57.18c7.25-21.06,30.2-32.26,51.27-25,21.06,7.25,32.26,30.2,25,51.27-7.25,21.06-30.2,32.26-51.27,25-21.06-7.25-32.26-30.2-25-51.27ZM19.25,80.58c7.25-21.06,30.2-32.26,51.27-25,21.06,7.25,32.26,30.2,25,51.27-7.25,21.06-30.2,32.26-51.27,25-21.06-7.25-32.26-30.2-25-51.27Z"/>
      <path class="cls-1" d="m70.6,95.13c2.28-1.11,5.02-.17,6.13,2.11,1.11,2.27.17,5.02-2.11,6.13l-17.33,8.45c-1.14.56-2.39.6-3.5.21s-2.07-1.19-2.63-2.32c-1.11-2.27-.17-5.02,2.11-6.13l17.33-8.45Z"/>
      <path class="cls-1" d="m70.83,70.88c2.28-1.11,5.02-.17,6.13,2.11,1.11,2.27.17,5.02-2.11,6.13l-36.82,17.96c-1.14.56-2.39.6-3.5.21s-2.07-1.19-2.63-2.32c-1.11-2.27-.17-5.02,2.11-6.13l36.82-17.96Z"/>
      <path class="cls-1" d="m81.48,18.27c-11.24-3.55-23.4-4.71-35.01-2.22-12.1,2.55-23.74,8.71-32.4,17.86C22.45,19.39,37.09,8.55,53.2,3.6,63.34.43,74.08-.47,84.68.22c5.95.2,10.26,6.34,8.39,12.01-1.53,4.87-6.72,7.58-11.59,6.04Z"/>
      <path class="cls-1" d="m254.1,96.56c-7.85-7.16-14.05-15.98-18.8-25.49-2.82-5.24.3-12.06,6.14-13.3,4.98-1.13,9.93,1.99,11.06,6.96,2.6,11.49,7.73,22.58,15.73,31.35,8.3,9.16,19.49,16.11,31.76,18.97-16.77.08-33.51-7.09-45.9-18.5Z"/>
      <path class="cls-1" d="m76.19,183.63c-5.78,16.8,3.18,35.17,19.98,40.96,16.8,5.78,35.17-3.18,40.96-19.98,5.78-16.8-3.18-35.17-19.98-40.96-16.8-5.78-35.17,3.18-40.96,19.98Zm9.91,3.41c3.9-11.34,16.3-17.38,27.64-13.48,11.34,3.9,17.38,16.3,13.48,27.64-3.9,11.34-16.3,17.38-27.64,13.48s-17.38-16.3-13.48-27.64Z"/>
    </g>
  </g>
</svg>